<svg id="KISS" xmlns="http://www.w3.org/2000/svg" width="1260.225" height="556.486" viewBox="0 0 1260.225 556.486">
  <g id="KISS-2" data-name="KISS" fill="none">
    <path d="M264.137,273.2,364.269,87.075,247.12,89.09,192.18,228.725q-2.067,6.189-4.124,12.255t-4.05,12.039q-1.993,5.973-3.915,11.925t-3.719,11.909h-1.544L146.6,90.818,51.633,92.451l71.394,388.727,83.041,1.511L188.835,369.142l20.475-34.869,91.747,150.145,98.114,1.785ZM432.923,486.816l88.3,1.606L508.959,84.587,407.117,86.338Zm413.89-393.18a156.506,156.506,0,0,0-18.734-7.661,202.979,202.979,0,0,0-23.3-6.32,245.7,245.7,0,0,0-27.687-4.15,287.149,287.149,0,0,0-31.843-1.162c-27.213.482-51.442,4.876-72.424,12.407-20.808,7.468-38.358,18-52.459,30.821a126.424,126.424,0,0,0-31.494,43.957,129.5,129.5,0,0,0-10.227,52.1,100.85,100.85,0,0,0,6.83,36.185,110.392,110.392,0,0,0,19.531,31.944,162.631,162.631,0,0,0,31.8,27.851,270.379,270.379,0,0,0,43.829,23.848c10.882,4.683,20.209,9.03,28.06,13.29a106.9,106.9,0,0,1,19.168,12.74,41.091,41.091,0,0,1,10.759,13.639,33.037,33.037,0,0,1,2.852,15.932,34.135,34.135,0,0,1-4.5,15.578,35.639,35.639,0,0,1-11.662,11.93,58.3,58.3,0,0,1-18.794,7.548,110.762,110.762,0,0,1-25.957,2.433,202.866,202.866,0,0,1-24.761-1.9,237.994,237.994,0,0,1-23.909-4.538c-7.689-1.867-15.028-4.046-21.8-6.408a179.872,179.872,0,0,1-18.405-7.51l-15.2,69.544a123.713,123.713,0,0,0,17.524,7.028,240.705,240.705,0,0,0,23.467,6.267c8.605,1.865,17.893,3.459,27.547,4.633a293.037,293.037,0,0,0,29.8,2.119c24.286.451,46.2-2.007,65.52-6.986,19.468-5.017,36.369-12.606,50.446-22.389a111.588,111.588,0,0,0,48.818-83.984,103.843,103.843,0,0,0-2.479-34.868A93.345,93.345,0,0,0,822.239,315.8c-7.212-10.056-16.712-19.489-28.694-28.273-12.032-8.821-26.544-16.972-43.718-24.43-13.145-5.844-24.131-10.95-33.2-15.692-9.088-4.751-16.257-9.138-21.758-13.54s-9.352-8.84-11.773-13.671a33.01,33.01,0,0,1-3.263-16.157,34.929,34.929,0,0,1,4.038-15.426,39.662,39.662,0,0,1,11.34-13.073,58.25,58.25,0,0,1,18.8-9.147,96.924,96.924,0,0,1,26.367-3.611,183.832,183.832,0,0,1,25.66,1.512,172.825,172.825,0,0,1,21.879,4.292,167.785,167.785,0,0,1,17.987,5.859c5.337,2.079,10.016,4.216,14.033,6.213Zm352.1-5.609a148.906,148.906,0,0,0-18.926-7.9,201.114,201.114,0,0,0-23.921-6.511,253.454,253.454,0,0,0-28.824-4.269,307.979,307.979,0,0,0-33.576-1.183c-28.865.512-55.025,5.057-78.114,12.837-22.891,7.713-42.688,18.581-59.1,31.806a153.455,153.455,0,0,0-38.416,45.3,141.267,141.267,0,0,0-16.855,53.63,96.835,96.835,0,0,0,3.016,37.213,97.81,97.81,0,0,0,16.915,32.831q11.808,15.305,30.332,28.611a249.613,249.613,0,0,0,43.484,24.492c10.94,4.809,20.276,9.272,28.065,13.646s14,8.642,18.74,13.079,7.959,9.009,9.756,14a31.679,31.679,0,0,1,1.14,16.344,38.1,38.1,0,0,1-6.578,15.974,43.811,43.811,0,0,1-13.7,12.227,70.041,70.041,0,0,1-20.707,7.73,123.911,123.911,0,0,1-27.66,2.484,214.544,214.544,0,0,1-25.891-1.951,242.191,242.191,0,0,1-24.683-4.659,231,231,0,0,1-22.241-6.574,171.37,171.37,0,0,1-18.536-7.7L868.578,480.7a118.036,118.036,0,0,0,17.651,7.2,238.858,238.858,0,0,0,24,6.425c8.851,1.913,18.451,3.549,28.487,4.755a310.424,310.424,0,0,0,31.157,2.184c25.542.475,48.921-2.03,69.875-7.116,21.113-5.126,39.825-12.888,55.822-22.9a140.576,140.576,0,0,0,39.92-36.907A128.056,128.056,0,0,0,1157,385.177a103.1,103.1,0,0,0,1.512-35.787,83.806,83.806,0,0,0-11.966-32.621c-6.429-10.332-15.351-20.026-26.974-29.054-11.672-9.067-26.046-17.446-43.314-25.114-13.2-6.008-24.211-11.258-33.24-16.135-9.046-4.886-16.107-9.4-21.4-13.925s-8.847-9.093-10.839-14.063c-2-4.985-2.444-10.393-1.556-16.626a38.864,38.864,0,0,1,6.075-15.88,48.71,48.71,0,0,1,13.522-13.464,70.912,70.912,0,0,1,20.958-9.426,109.931,109.931,0,0,1,28.311-3.727,195.617,195.617,0,0,1,26.963,1.55,175.487,175.487,0,0,1,22.637,4.415,163.465,163.465,0,0,1,18.333,6.031c5.4,2.14,10.1,4.341,14.109,6.4Z" stroke="none"/>
    <path d="M 969.8103637695312 501.6933898925781 C 964.8631591796875 501.6012573242188 959.8621826171875 501.3817443847656 954.8418579101562 501.0388488769531 C 949.8248901367188 500.6962890625 944.7875366210938 500.2304077148438 939.7642211914062 499.6455688476562 C 934.7435913085938 499.0610656738281 929.7357177734375 498.3573608398438 924.7750854492188 497.5386657714844 C 919.81591796875 496.72021484375 914.9031372070312 495.7866516113281 910.0704956054688 494.7418823242188 C 907.8983154296875 494.2723083496094 905.763671875 493.7847900390625 903.6700439453125 493.2802124023438 C 901.5762939453125 492.7756652832031 899.523681640625 492.254150390625 897.5152587890625 491.7164306640625 C 895.5068359375 491.1787414550781 893.5426635742188 490.6247863769531 891.626220703125 490.0557861328125 C 889.7095947265625 489.4866638183594 887.8406982421875 488.90234375 886.0228271484375 488.3036499023438 C 884.2560424804688 487.7218017578125 882.5584716796875 487.1334838867188 880.9325561523438 486.5396728515625 C 879.3063354492188 485.9457092285156 877.7520141601562 485.3463745117188 876.27197265625 484.7424926757812 C 874.7916259765625 484.1385498046875 873.385498046875 483.5301208496094 872.0562133789062 482.9181823730469 C 870.7266235351562 482.3062133789062 869.4739990234375 481.6907348632812 868.301025390625 481.0729370117188 L 868.0025634765625 480.9158325195312 L 868.105712890625 480.6109008789062 L 892.15087890625 409.3871154785156 L 892.3472900390625 408.8050842285156 L 892.91162109375 409.0829162597656 C 894.2890625 409.7614135742188 895.7109985351562 410.431884765625 897.1748046875 411.0932312011719 C 898.6380004882812 411.7543640136719 900.1431884765625 412.4063415527344 901.6870727539062 413.0480041503906 C 903.2310180664062 413.6895751953125 904.8140869140625 414.3209228515625 906.4331665039062 414.9408264160156 C 908.05224609375 415.5606689453125 909.7080078125 416.1692504882812 911.3971557617188 416.7652893066406 C 913.1630859375 417.388427734375 914.9541015625 417.9937133789062 916.7672729492188 418.5801696777344 C 918.5799560546875 419.1665344238281 920.4151000976562 419.7342529296875 922.268798828125 420.2821350097656 C 924.12255859375 420.830078125 925.9951782226562 421.3582763671875 927.8836669921875 421.8659362792969 C 929.7720947265625 422.3735656738281 931.6761474609375 422.8605041503906 933.5929565429688 423.3260192871094 C 935.6322021484375 423.8211669921875 937.679443359375 424.290283203125 939.7310791015625 424.732666015625 C 941.7828979492188 425.1750793457031 943.8390502929688 425.5907287597656 945.896240234375 425.9790649414062 C 947.9537353515625 426.367431640625 950.0120849609375 426.7283630371094 952.0679321289062 427.0612487792969 C 954.1240844726562 427.3942260742188 956.1779174804688 427.6991882324219 958.2257080078125 427.9753723144531 C 960.4237060546875 428.2717895507812 962.6149291992188 428.5350341796875 964.7957153320312 428.7647705078125 C 966.9769287109375 428.99462890625 969.147705078125 429.19091796875 971.3043823242188 429.3534240722656 C 973.4617919921875 429.5160217285156 975.6048583984375 429.6447448730469 977.7305297851562 429.7394714355469 C 979.8567504882812 429.8341674804688 981.96533203125 429.8948059082031 984.0526123046875 429.9210510253906 C 986.5751342773438 429.9527282714844 989.045166015625 429.9246520996094 991.4589233398438 429.837158203125 C 993.8738403320312 429.7496032714844 996.232666015625 429.6026611328125 998.5310668945312 429.3964233398438 C 1000.830871582031 429.1900939941406 1003.070556640625 428.9245300292969 1005.246276855469 428.6000366210938 C 1007.423156738281 428.2752685546875 1009.536010742188 427.8914794921875 1011.580993652344 427.4488830566406 C 1013.541076660156 427.0247192382812 1015.441955566406 426.5459594726562 1017.280822753906 426.0134582519531 C 1019.121215820312 425.480712890625 1020.899597167969 424.8942260742188 1022.613098144531 424.2550354003906 C 1024.328002929688 423.6154174804688 1025.977783203125 422.9229125976562 1027.5595703125 422.1787109375 C 1029.142822265625 421.4339904785156 1030.657958984375 420.6372680664062 1032.102172851562 419.7897644042969 C 1033.499145507812 418.9700622558594 1034.83056640625 418.1021118164062 1036.0947265625 417.1877136230469 C 1037.3603515625 416.2725524902344 1038.558471679688 415.3107299804688 1039.687255859375 414.3038940429688 C 1040.817016601562 413.296142578125 1041.877319335938 412.2432861328125 1042.8662109375 411.1470336914062 C 1043.856079101562 410.0497436523438 1044.7744140625 408.9089050292969 1045.619018554688 407.7261657714844 C 1046.44921875 406.5636291503906 1047.208374023438 405.3607482910156 1047.895385742188 404.11962890625 C 1048.583129882812 402.8772583007812 1049.198852539062 401.5966796875 1049.741088867188 400.2799377441406 C 1050.283813476562 398.9617919921875 1050.75341796875 397.6075439453125 1051.1484375 396.2192687988281 C 1051.543701171875 394.8294677734375 1051.864624023438 393.4057006835938 1052.109741210938 391.9501037597656 C 1052.360473632812 390.4613647460938 1052.52587890625 389.0149230957031 1052.605346679688 387.6062622070312 C 1052.684692382812 386.196044921875 1052.678344726562 384.8238830566406 1052.58544921875 383.4850158691406 C 1052.492553710938 382.1449279785156 1052.312744140625 380.8382568359375 1052.046142578125 379.5606689453125 C 1051.779174804688 378.2818908691406 1051.425048828125 377.0322265625 1050.983276367188 375.8070068359375 C 1050.544677734375 374.5907287597656 1050.018798828125 373.3956298828125 1049.402587890625 372.2178344726562 C 1048.785888671875 371.0391235351562 1048.078735351562 369.8777465820312 1047.278198242188 368.7296752929688 C 1046.477294921875 367.580810546875 1045.5830078125 366.4454345703125 1044.592163085938 365.3194274902344 C 1043.600952148438 364.1927795410156 1042.51318359375 363.0755004882812 1041.326171875 361.9638061523438 C 1040.18896484375 360.898681640625 1038.955200195312 359.8338623046875 1037.619140625 358.7657165527344 C 1036.2822265625 357.6968994140625 1034.843383789062 356.6248474121094 1033.296630859375 355.5455322265625 C 1031.749145507812 354.4657287597656 1030.093994140625 353.3788146972656 1028.325439453125 352.2809753417969 C 1026.556030273438 351.1825866699219 1024.67333984375 350.0733032226562 1022.671752929688 348.9493408203125 C 1020.846130371094 347.9241638183594 1018.921142578125 346.8849792480469 1016.875610351562 345.8217163085938 C 1014.82958984375 344.758056640625 1012.663269042969 343.6703491210938 1010.356384277344 342.5486450195312 C 1008.048522949219 341.4265441894531 1005.599853515625 340.2703857421875 1002.989929199219 339.0703125 C 1000.378845214844 337.8697509765625 997.6063842773438 336.6251220703125 994.6517333984375 335.3265686035156 C 990.4973754882812 333.4620971679688 986.467041015625 331.5489807128906 982.5670166015625 329.590576171875 C 978.6641235351562 327.6307983398438 974.8914184570312 325.6255493164062 971.2548828125 323.5780334472656 C 967.615234375 321.5288391113281 964.1116943359375 319.4372253417969 960.7506103515625 317.306396484375 C 957.3862915039062 315.1736755371094 954.1641845703125 313.0015258789062 951.0903930664062 310.7932739257812 C 949.5545043945312 309.6898498535156 948.0484008789062 308.5721130371094 946.5743408203125 307.4418640136719 C 945.0994262695312 306.3110046386719 943.656494140625 305.1676940917969 942.248291015625 304.0138854980469 C 940.8392333984375 302.8594055175781 939.464599609375 301.6943664550781 938.1270751953125 300.5207824707031 C 936.7884521484375 299.3464965820312 935.4871826171875 298.1636962890625 934.2251586914062 296.9742126464844 C 932.9622192382812 295.7836608886719 931.730224609375 294.5784606933594 930.5311889648438 293.3607177734375 C 929.3312377929688 292.1421203613281 928.164306640625 290.9109497070312 927.032470703125 289.6693420410156 C 925.8995971679688 288.4268493652344 924.8019409179688 287.1738586425781 923.7412109375 285.9125061035156 C 922.6798706054688 284.6502380371094 921.6553344726562 283.3795166015625 920.6698608398438 282.1025390625 C 919.6828002929688 280.8235778808594 918.7280883789062 279.5296020507812 917.8076171875 278.2229614257812 C 916.88623046875 276.9153747558594 915.9988403320312 275.5950317382812 915.14697265625 274.26416015625 C 914.29443359375 272.9323425292969 913.4774169921875 271.5899658203125 912.6973266601562 270.2393493652344 C 911.916748046875 268.8876953125 911.17333984375 267.5277404785156 910.46826171875 266.1618957519531 C 909.76171875 264.7930297851562 909.0891723632812 263.4088745117188 908.4517211914062 262.011962890625 C 907.813720703125 260.6138610839844 907.2106323242188 259.2028198242188 906.643798828125 257.7813415527344 C 906.076171875 256.3585815429688 905.5447998046875 254.9253540039062 905.05078125 253.4840850830078 C 904.5560913085938 252.0414733886719 904.0986938476562 250.5907440185547 903.6795043945312 249.1344757080078 C 903.2593383789062 247.6742706298828 902.87451171875 246.1985321044922 902.5260620117188 244.7098388671875 C 902.1771240234375 243.2196655273438 901.8644409179688 241.7165222167969 901.5882568359375 240.2028656005859 C 901.31201171875 238.6876983642578 901.0726928710938 237.1621398925781 900.8704833984375 235.6286010742188 C 900.6680908203125 234.093505859375 900.503173828125 232.5504608154297 900.3761596679688 231.0021514892578 C 900.2487182617188 229.4492034912109 900.1583862304688 227.8803405761719 900.1056518554688 226.29833984375 C 900.0526733398438 224.7146911621094 900.0372924804688 223.1178131103516 900.0592651367188 221.5105133056641 C 900.081298828125 219.9013824462891 900.1406860351562 218.2818450927734 900.2376708984375 216.6544799804688 C 900.3347778320312 215.0252532958984 900.4695434570312 213.3883514404297 900.641845703125 211.7463989257812 C 900.8872680664062 209.4077606201172 901.19091796875 207.0735778808594 901.552001953125 204.7479858398438 C 901.913818359375 202.4185180664062 902.3331298828125 200.0976257324219 902.8095092773438 197.7892761230469 C 903.2868041992188 195.4771728515625 903.8211669921875 193.1776580810547 904.412109375 190.8948974609375 C 905.0038452148438 188.6083679199219 905.6524047851562 186.3385925292969 906.35693359375 184.0898132324219 C 907.0612182617188 181.8419342041016 907.8238525390625 179.6066284179688 908.6436767578125 177.3876953125 C 909.4646606445312 175.1651763916016 910.3431396484375 172.9590301513672 911.2771606445312 170.7732696533203 C 912.2125854492188 168.5839233398438 913.2039794921875 166.4149627685547 914.2498168945312 164.2703399658203 C 915.2974243164062 162.1223449707031 916.3995971679688 159.9987487792969 917.5546264648438 157.9034881591797 C 919.9071655273438 153.6360931396484 922.477294921875 149.4809875488281 925.2603149414062 145.4455871582031 C 928.0519409179688 141.3975067138672 931.057373046875 137.4702758789062 934.2719116210938 133.6714630126953 C 937.4961547851562 129.8611602783203 940.9304809570312 126.1804351806641 944.5692749023438 122.6369552612305 C 948.2190551757812 119.0831298828125 952.0743408203125 115.6677932739258 956.1298828125 112.3986434936523 C 964.7859497070312 105.4212188720703 974.2369384765625 99.20441436767578 984.4046630859375 93.78441619873047 C 994.6246337890625 88.33653259277344 1005.559997558594 83.69830322265625 1017.1279296875 79.90493011474609 C 1028.745483398438 76.09535217285156 1040.990234375 73.14138031005859 1053.77587890625 71.07676696777344 C 1066.604125976562 69.00526428222656 1079.964233398438 67.83106994628906 1093.765502929688 67.58575439453125 C 1099.330444335938 67.48680877685547 1104.8203125 67.52719116210938 1110.225219726562 67.70614624023438 C 1115.634033203125 67.88525390625 1120.956298828125 68.20317077636719 1126.182373046875 68.65914154052734 C 1131.411010742188 69.1153564453125 1136.542114257812 69.70970153808594 1141.565673828125 70.44139862060547 C 1146.590698242188 71.17333221435547 1151.507202148438 72.04250335693359 1156.3046875 73.048095703125 C 1158.41357421875 73.49007415771484 1160.499633789062 73.95890045166016 1162.5595703125 74.45359802246094 C 1164.61962890625 74.94830322265625 1166.6533203125 75.4688720703125 1168.657348632812 76.01425170898438 C 1170.6611328125 76.55960083007812 1172.634765625 77.12985229492188 1174.575073242188 77.7239990234375 C 1176.515625 78.31807708740234 1178.422241210938 78.93600463867188 1180.291748046875 79.57675170898438 C 1182.005249023438 80.16405487060547 1183.690063476562 80.77131652832031 1185.342895507812 81.39730072021484 C 1186.99560546875 82.02315521240234 1188.616821289062 82.66770935058594 1190.203247070312 83.32980346679688 C 1191.789428710938 83.99177551269531 1193.34130859375 84.67123413085938 1194.855590820312 85.36707305908203 C 1196.36962890625 86.06269836425781 1197.84619140625 86.77465057373047 1199.282592773438 87.50168609619141 L 1199.666381835938 87.6959228515625 L 1199.4716796875 88.14546966552734 L 1160.659790039062 177.8627471923828 L 1160.3671875 178.5393218994141 L 1159.773803710938 178.2352447509766 C 1157.183349609375 176.9080657958984 1154.579345703125 175.6592864990234 1151.9521484375 174.4853515625 C 1149.32421875 173.3110504150391 1146.673461914062 172.2117462158203 1143.99072265625 171.1839904785156 C 1141.30712890625 170.1559753417969 1138.591796875 169.1996612548828 1135.8359375 168.3114929199219 C 1133.079223632812 167.4232177734375 1130.282104492188 166.6031494140625 1127.434692382812 165.8478393554688 C 1123.552368164062 164.81787109375 1119.598754882812 163.9201049804688 1115.581909179688 163.1555786132812 C 1111.565673828125 162.39111328125 1107.487182617188 161.7600402832031 1103.354125976562 161.2631988525391 C 1099.222534179688 160.7665252685547 1095.037231445312 160.4041290283203 1090.805908203125 160.1767883300781 C 1086.577026367188 159.9495239257812 1082.303100585938 159.8573303222656 1077.992309570312 159.9008331298828 C 1075.437744140625 159.9265747070312 1072.929077148438 160.0239868164062 1070.470947265625 160.1924133300781 C 1068.014282226562 160.3607177734375 1065.607788085938 160.6000061035156 1063.255981445312 160.9095458984375 C 1060.905517578125 161.2190246582031 1058.609985351562 161.5986175537109 1056.373168945312 162.0478210449219 C 1054.137939453125 162.4967346191406 1051.961791992188 163.0151519775391 1049.8486328125 163.6023559570312 C 1047.873779296875 164.1511840820312 1045.95556640625 164.7594299316406 1044.097290039062 165.4256439208984 C 1042.240356445312 166.09130859375 1040.443115234375 166.8148040771484 1038.708984375 167.5947418212891 C 1036.97607421875 168.3740081787109 1035.30615234375 169.20947265625 1033.702026367188 170.0997314453125 C 1032.099365234375 170.9892272949219 1030.5625 171.933349609375 1029.094482421875 172.9306182861328 C 1027.706298828125 173.8737182617188 1026.384155273438 174.8607482910156 1025.130493164062 175.8896179199219 C 1023.877990722656 176.9176330566406 1022.693786621094 177.9873962402344 1021.579528808594 179.0968627929688 C 1020.46630859375 180.2053375244141 1019.423034667969 181.3534393310547 1018.451782226562 182.5391693115234 C 1017.481262207031 183.7238159179688 1016.582641601562 184.9459533691406 1015.757568359375 186.2035827636719 C 1014.959411621094 187.4201965332031 1014.234985351562 188.6622009277344 1013.585144042969 189.92724609375 C 1012.935668945312 191.1910247802734 1012.360656738281 192.4778594970703 1011.860900878906 193.7853546142578 C 1011.361389160156 195.0916137695312 1010.936889648438 196.41845703125 1010.588256835938 197.7636566162109 C 1010.239868164062 199.1075286865234 1009.967163085938 200.4697418212891 1009.770446777344 201.8478546142578 C 1009.658386230469 202.6348266601562 1009.568237304688 203.4025115966797 1009.499694824219 204.1533966064453 C 1009.431396484375 204.9038848876953 1009.384643554688 205.6376953125 1009.359558105469 206.3573150634766 C 1009.334533691406 207.0766448974609 1009.331237792969 207.7818145751953 1009.349609375 208.4754333496094 C 1009.367614746094 209.1687164306641 1009.407470703125 209.8504791259766 1009.468627929688 210.5232238769531 C 1009.530944824219 211.2092437744141 1009.615173339844 211.8814849853516 1009.7216796875 212.542236328125 C 1009.828308105469 213.2026977539062 1009.957092285156 213.8516235351562 1010.108825683594 214.4914245605469 C 1010.260375976562 215.1308898925781 1010.434997558594 215.7612609863281 1010.632995605469 216.3847045898438 C 1010.830871582031 217.0079650878906 1011.052185058594 217.6242523193359 1011.297119140625 218.2359619140625 C 1011.783630371094 219.449951171875 1012.368103027344 220.6447906494141 1013.053527832031 221.8246154785156 C 1013.738403320312 223.0035247802734 1014.524291992188 224.1675872802734 1015.413940429688 225.3207244873047 C 1016.302978515625 226.4731292724609 1017.296203613281 227.6148223876953 1018.396118164062 228.7498016357422 C 1019.495300292969 229.8841247558594 1020.701721191406 231.0119018554688 1022.017700195312 232.1370391845703 C 1024.718017578125 234.44580078125 1027.876831054688 236.746826171875 1031.497680664062 239.0825500488281 C 1035.115112304688 241.4159240722656 1039.194213867188 243.7841796875 1043.738403320312 246.2293853759766 C 1048.2783203125 248.6723480224609 1053.282836914062 251.1922302246094 1058.755493164062 253.8308563232422 C 1064.22314453125 256.4671630859375 1070.15771484375 259.2218933105469 1076.562133789062 262.1365966796875 C 1078.706665039062 263.0888366699219 1080.81591796875 264.0569763183594 1082.886962890625 265.0392456054688 C 1084.957641601562 266.0212097167969 1086.989501953125 267.0172119140625 1088.979614257812 268.0254821777344 C 1090.968994140625 269.0333862304688 1092.916137695312 270.0534973144531 1094.817749023438 271.0839538574219 C 1096.718505859375 272.1139831542969 1098.573852539062 273.1544799804688 1100.3798828125 274.2034301757812 C 1102.169555664062 275.2429504394531 1103.92431640625 276.2985229492188 1105.64111328125 277.3681640625 C 1107.356689453125 278.4372863769531 1109.034545898438 279.5204772949219 1110.67138671875 280.61572265625 C 1112.3076171875 281.7104187011719 1113.902709960938 282.817138671875 1115.453979492188 283.9339294433594 C 1117.00439453125 285.0501708984375 1118.510864257812 286.1763916015625 1119.970947265625 287.3107604980469 C 1121.416625976562 288.4338989257812 1122.827026367188 289.5732116699219 1124.199951171875 290.7266235351562 C 1125.572387695312 291.87939453125 1126.9072265625 293.0461730957031 1128.202514648438 294.2248840332031 C 1129.496948242188 295.4028930664062 1130.75146484375 296.5927429199219 1131.964599609375 297.7924499511719 C 1133.176513671875 298.9913940429688 1134.346435546875 300.2000122070312 1135.472412109375 301.4162902832031 C 1136.586303710938 302.6194152832031 1137.6650390625 303.8387451171875 1138.707275390625 305.0722351074219 C 1139.748657226562 306.3049011230469 1140.75341796875 307.5516357421875 1141.7197265625 308.81005859375 C 1142.685424804688 310.0676574707031 1143.61279296875 311.3369750976562 1144.500244140625 312.6158142089844 C 1145.386840820312 313.8936462402344 1146.23388671875 315.1809997558594 1147.039184570312 316.4755859375 C 1147.834594726562 317.7543334960938 1148.595458984375 319.0496215820312 1149.3203125 320.3590393066406 C 1150.044799804688 321.6674194335938 1150.733154296875 322.9897766113281 1151.384887695312 324.3238220214844 C 1152.0361328125 325.6567993164062 1152.650390625 327.0013427734375 1153.226684570312 328.3550720214844 C 1153.802490234375 329.7077331542969 1154.34033203125 331.069580078125 1154.839233398438 332.4381713867188 C 1155.331298828125 333.7881164550781 1155.788818359375 335.1546936035156 1156.211791992188 336.535400390625 C 1156.634155273438 337.9148254394531 1157.021850585938 339.3083190917969 1157.373901367188 340.7133178710938 C 1157.7255859375 342.1170654296875 1158.0419921875 343.5322265625 1158.322387695312 344.9563598632812 C 1158.602661132812 346.379150390625 1158.846801757812 347.8108215332031 1159.0546875 349.2489929199219 C 1159.259399414062 350.6651916503906 1159.430053710938 352.0980529785156 1159.56689453125 353.5451354980469 C 1159.703735351562 354.9907531738281 1159.806762695312 356.4504699707031 1159.875732421875 357.9215087890625 C 1159.944580078125 359.3910827636719 1159.979614257812 360.8720092773438 1159.980834960938 362.3617248535156 C 1159.981811523438 363.8498229980469 1159.949096679688 365.3465881347656 1159.882446289062 366.8494262695312 C 1159.817016601562 368.3268737792969 1159.718017578125 369.8211669921875 1159.58642578125 371.3297119140625 C 1159.454956054688 372.8366088867188 1159.290649414062 374.3575744628906 1159.09375 375.889892578125 C 1158.897338867188 377.4205017089844 1158.66845703125 378.9623413085938 1158.407836914062 380.5128784179688 C 1158.147338867188 382.0615539550781 1157.85498046875 383.6187438964844 1157.531127929688 385.1817016601562 C 1156.590087890625 389.7252807617188 1155.425170898438 394.1743469238281 1154.041259765625 398.522216796875 C 1152.661865234375 402.8555908203125 1151.064453125 407.0887145996094 1149.253295898438 411.2149658203125 C 1147.447875976562 415.3277893066406 1145.430053710938 419.3346862792969 1143.203857421875 423.2292785644531 C 1140.984985351562 427.1115112304688 1138.558471679688 430.8823852539062 1135.9287109375 434.5355529785156 C 1133.307861328125 438.1766662597656 1130.494018554688 441.6880798339844 1127.494140625 445.0650634765625 C 1124.503295898438 448.4320678710938 1121.326904296875 451.6658935546875 1117.971557617188 454.7620239257812 C 1114.62548828125 457.8493041992188 1111.101196289062 460.8000793457031 1107.40478515625 463.60986328125 C 1103.71826171875 466.4120178222656 1099.859985351562 469.07421875 1095.836181640625 471.5920715332031 C 1091.746948242188 474.1506652832031 1087.498413085938 476.5523376464844 1083.098999023438 478.7946472167969 C 1078.710205078125 481.0314636230469 1074.170043945312 483.1099853515625 1069.4873046875 485.0278015136719 C 1064.815063476562 486.9412536621094 1059.999755859375 488.6950988769531 1055.048950195312 490.2864990234375 C 1050.108642578125 491.8746948242188 1045.032836914062 493.3016052246094 1039.829223632812 494.5644226074219 C 1034.44970703125 495.8700561523438 1028.940673828125 496.9981079101562 1023.312316894531 497.9483337402344 C 1017.693298339844 498.896728515625 1011.954284667969 499.6682434082031 1006.104064941406 500.2621459960938 C 1000.262878417969 500.8551940917969 994.3099365234375 501.2713623046875 988.2544555664062 501.510009765625 C 982.2068481445312 501.7483215332031 976.0557250976562 501.8096923828125 969.8103637695312 501.6933898925781 Z M 869.1532592773438 480.4910583496094 C 870.3034057617188 481.089599609375 871.5293579101562 481.6859436035156 872.8286743164062 482.2791748046875 C 874.1278076171875 482.872314453125 875.500244140625 483.4623107910156 876.9434814453125 484.0481567382812 C 878.3865356445312 484.6339416503906 879.9006958007812 485.2156982421875 881.483154296875 485.7923278808594 C 883.0656127929688 486.368896484375 884.716552734375 486.9404296875 886.4336547851562 487.5059814453125 C 888.2435302734375 488.1020812988281 890.1044921875 488.6839904785156 892.0132446289062 489.250732421875 C 893.9215698242188 489.8173828125 895.877685546875 490.3689270019531 897.878173828125 490.904541015625 C 899.87841796875 491.4400024414062 901.9231567382812 491.9595336914062 904.0087280273438 492.4620666503906 C 906.09423828125 492.9646911621094 908.2208862304688 493.4503784179688 910.3848266601562 493.9181213378906 C 915.2021484375 494.9595336914062 920.099365234375 495.8900451660156 925.0428466796875 496.7057800292969 C 929.9873657226562 497.5216979980469 934.9791259765625 498.2229614257812 939.9837646484375 498.8055114746094 C 944.9909057617188 499.3883056640625 950.0117797851562 499.8523864746094 955.0125732421875 500.1936340332031 C 960.0165405273438 500.5350952148438 965.0013427734375 500.7537231445312 969.9323120117188 500.84521484375 C 976.1541137695312 500.9605712890625 982.2816162109375 500.8991088867188 988.3056640625 500.6613464355469 C 994.337158203125 500.4232788085938 1000.266235351562 500.0084838867188 1006.083312988281 499.4174194335938 C 1011.909423828125 498.8256530761719 1017.62451171875 498.0570068359375 1023.218994140625 497.1119995117188 C 1028.823120117188 496.1654052734375 1034.307739257812 495.0416870117188 1039.662841796875 493.7412109375 C 1044.83447265625 492.4853210449219 1049.878540039062 491.0666809082031 1054.787475585938 489.4879150390625 C 1059.706420898438 487.9059143066406 1064.490600585938 486.1629028320312 1069.132080078125 484.2613830566406 C 1073.784057617188 482.3556213378906 1078.293334960938 480.2903137207031 1082.652099609375 478.0680236816406 C 1087.021362304688 475.8403015136719 1091.239868164062 473.4544677734375 1095.299560546875 470.9129333496094 C 1099.2900390625 468.4148559570312 1103.115844726562 465.7736206054688 1106.771240234375 462.9937438964844 C 1110.436401367188 460.2064208984375 1113.9306640625 457.2792663574219 1117.247680664062 454.2168579101562 C 1120.574340820312 451.1457824707031 1123.72314453125 447.9383239746094 1126.687866210938 444.5988464355469 C 1129.661254882812 441.2495727539062 1132.449829101562 437.7672119140625 1135.047485351562 434.1563110351562 C 1137.655029296875 430.5312805175781 1140.060913085938 426.7892456054688 1142.261352539062 422.9364318847656 C 1144.468627929688 419.0715026855469 1146.468994140625 415.0947265625 1148.258911132812 411.0127258300781 C 1150.054321289062 406.91748046875 1151.637573242188 402.7158508300781 1153.0048828125 398.41455078125 C 1154.376708984375 394.0989990234375 1155.530883789062 389.6827392578125 1156.46337890625 385.1724548339844 C 1156.784057617188 383.6207580566406 1157.07373046875 382.0749206542969 1157.331665039062 380.5376281738281 C 1157.58984375 378.9985961914062 1157.816284179688 377.4681396484375 1158.010864257812 375.9489440917969 C 1158.205688476562 374.4281616210938 1158.368286132812 372.9186706542969 1158.498168945312 371.4232482910156 C 1158.628295898438 369.9262390136719 1158.72607421875 368.4433898925781 1158.790405273438 366.9774475097656 C 1158.855834960938 365.4873962402344 1158.8876953125 364.00341796875 1158.885986328125 362.5281677246094 C 1158.884399414062 361.0513610839844 1158.84912109375 359.583251953125 1158.780151367188 358.12646484375 C 1158.711303710938 356.6682434082031 1158.608642578125 355.2213745117188 1158.47265625 353.7885131835938 C 1158.336303710938 352.354248046875 1158.166625976562 350.9340515136719 1157.963134765625 349.530517578125 C 1157.7568359375 348.1057434082031 1157.514282226562 346.6873779296875 1157.236206054688 345.2778625488281 C 1156.957763671875 343.8670349121094 1156.643920898438 342.4651184082031 1156.294799804688 341.0744934082031 C 1155.945434570312 339.6826782226562 1155.56103515625 338.30224609375 1155.141967773438 336.9357299804688 C 1154.72265625 335.568115234375 1154.2685546875 334.2143859863281 1153.780883789062 332.8771362304688 C 1153.286010742188 331.5211791992188 1152.752685546875 330.1719360351562 1152.181762695312 328.8318481445312 C 1151.610229492188 327.4905090332031 1151.001098632812 326.1583251953125 1150.355346679688 324.8375854492188 C 1149.709228515625 323.515869140625 1149.0263671875 322.20556640625 1148.30810546875 320.9091186523438 C 1147.589233398438 319.6116943359375 1146.835083007812 318.3282165527344 1146.046142578125 317.0610656738281 C 1145.246948242188 315.7773742675781 1144.406982421875 314.5007934570312 1143.52685546875 313.2335510253906 C 1142.646362304688 311.9653930664062 1141.726196289062 310.7066040039062 1140.767822265625 309.4593811035156 C 1139.808837890625 308.2112426757812 1138.811767578125 306.974853515625 1137.7783203125 305.7522277832031 C 1136.744262695312 304.5288391113281 1135.673706054688 303.3193054199219 1134.568481445312 302.1259460449219 C 1133.449584960938 300.9182434082031 1132.287231445312 299.7181091308594 1131.083129882812 298.5276489257812 C 1129.87841796875 297.3363647460938 1128.631713867188 296.1547546386719 1127.345947265625 294.9848937988281 C 1126.05908203125 293.8143005371094 1124.732788085938 292.6554870605469 1123.369262695312 291.5105285644531 C 1122.005126953125 290.3649597167969 1120.603393554688 289.2333068847656 1119.1669921875 288.1176147460938 C 1117.71484375 286.9897766113281 1116.216186523438 285.869873046875 1114.673950195312 284.7599487304688 C 1113.130737304688 283.6493835449219 1111.544189453125 282.548828125 1109.91650390625 281.4601440429688 C 1108.2880859375 280.3709716796875 1106.619018554688 279.2936706542969 1104.911865234375 278.2302856445312 C 1103.203979492188 277.1664123535156 1101.458129882812 276.1164245605469 1099.67724609375 275.0823669433594 C 1097.878784179688 274.0380859375 1096.031127929688 273.0022888183594 1094.138305664062 271.9766845703125 C 1092.244384765625 270.9507141113281 1090.30517578125 269.9349670410156 1088.32373046875 268.9313049316406 C 1086.341552734375 267.9272766113281 1084.317138671875 266.9352722167969 1082.25439453125 265.9571838378906 C 1080.191040039062 264.9787902832031 1078.089233398438 264.0142822265625 1075.951904296875 263.0654907226562 C 1069.530517578125 260.1435852050781 1063.579467773438 257.3815612792969 1058.095825195312 254.737548828125 C 1052.607421875 252.0911712646484 1047.587036132812 249.5629272460938 1043.030883789062 247.1105651855469 C 1038.470458984375 244.6558685302734 1034.375244140625 242.2771759033203 1030.740600585938 239.9316558837891 C 1027.102416992188 237.5838928222656 1023.925476074219 235.2691955566406 1021.205688476562 232.9445953369141 C 1018.561645507812 230.6849517822266 1016.343566894531 228.41162109375 1014.531555175781 226.0746612548828 C 1012.717224121094 223.7346801757812 1011.309631347656 221.3303527832031 1010.288940429688 218.8112945556641 C 1009.266967773438 216.2883911132812 1008.633178710938 213.649658203125 1008.367736816406 210.8441314697266 C 1008.102111816406 208.0334777832031 1008.2060546875 205.0543365478516 1008.660827636719 201.855224609375 C 1008.862609863281 200.4363098144531 1009.143127441406 199.0337066650391 1009.501525878906 197.6497344970703 C 1009.860107421875 196.2643585205078 1010.296752929688 194.897705078125 1010.810852050781 193.5521392822266 C 1011.325378417969 192.2051849365234 1011.917297363281 190.8793640136719 1012.586059570312 189.5770568847656 C 1013.25537109375 188.2734527587891 1014.001403808594 186.9934387207031 1014.823608398438 185.7394104003906 C 1015.672424316406 184.4445953369141 1016.596618652344 183.1865081787109 1017.594421386719 181.9673461914062 C 1018.593078613281 180.7469635009766 1019.665771484375 179.5655212402344 1020.809631347656 178.4250793457031 C 1021.954895019531 177.2835693359375 1023.171997070312 176.1831970214844 1024.458862304688 175.1260986328125 C 1025.746948242188 174.0680236816406 1027.105102539062 173.0533142089844 1028.531005859375 172.0840301513672 C 1030.0302734375 171.0648956298828 1031.599243164062 170.1003570556641 1033.234497070312 169.1917266845703 C 1034.871459960938 168.2823944091797 1036.574829101562 167.4291687011719 1038.341796875 166.6335601806641 C 1040.110229492188 165.8373260498047 1041.942016601562 165.0989379882812 1043.834228515625 164.4197540283203 C 1045.728149414062 163.7401580810547 1047.682006835938 163.1199035644531 1049.693237304688 162.560546875 C 1051.833984375 161.9653167724609 1054.037841796875 161.4398345947266 1056.30078125 160.9846954345703 C 1058.565307617188 160.5292816162109 1060.888916015625 160.1444244384766 1063.26708984375 159.8306427001953 C 1065.646850585938 159.5167083740234 1068.081298828125 159.2740478515625 1070.56640625 159.1033020019531 C 1073.052490234375 158.9324340820312 1075.588989257812 158.8335571289062 1078.17138671875 158.8072814941406 C 1082.509643554688 158.7631072998047 1086.810424804688 158.8556060791016 1091.066284179688 159.0839996337891 C 1095.324096679688 159.3124694824219 1099.536254882812 159.6770477294922 1103.6943359375 160.1767578125 C 1107.853637695312 160.6765899658203 1111.958374023438 161.3116302490234 1116.000366210938 162.0809478759766 C 1120.042602539062 162.8503112792969 1124.021606445312 163.7538146972656 1127.929321289062 164.7904663085938 C 1130.74072265625 165.5363006591797 1133.50341796875 166.3447723388672 1136.226684570312 167.2192993164062 C 1138.949340820312 168.09375 1141.632202148438 169.0340728759766 1144.283813476562 170.0437774658203 C 1146.934936523438 171.0532531738281 1149.554565429688 172.1318817138672 1152.151611328125 173.2830047607422 C 1154.747680664062 174.4336853027344 1157.320922851562 175.65673828125 1159.880249023438 176.9554290771484 L 1198.170532226562 88.3572998046875 C 1196.769165039062 87.65444183349609 1195.329711914062 86.96589660644531 1193.85498046875 86.29278564453125 C 1192.379760742188 85.61961364746094 1190.869506835938 84.96193695068359 1189.326049804688 84.32078552246094 C 1187.782592773438 83.67954254150391 1186.206298828125 83.05493927001953 1184.599975585938 82.44805145263672 C 1182.9931640625 81.84111022949219 1181.356689453125 81.251953125 1179.692504882812 80.68154907226562 C 1177.83349609375 80.04450225830078 1175.9375 79.43011474609375 1174.008056640625 78.83944702148438 C 1172.078247070312 78.24868774414062 1170.115478515625 77.681640625 1168.12255859375 77.13930511474609 C 1166.129638671875 76.596923828125 1164.107055664062 76.07923889160156 1162.058349609375 75.58718872070312 C 1160.009521484375 75.09519958496094 1157.9345703125 74.62884521484375 1155.837036132812 74.18923950195312 C 1151.061401367188 73.18825531005859 1146.167724609375 72.32295989990234 1141.165161132812 71.59429168701172 C 1136.164428710938 70.86579895019531 1131.056396484375 70.27394866943359 1125.850830078125 69.819580078125 C 1120.64794921875 69.36540222167969 1115.348876953125 69.048583984375 1109.963745117188 68.86993408203125 C 1104.582275390625 68.69141387939453 1099.115966796875 68.65078735351562 1093.57470703125 68.74875640869141 C 1079.851806640625 68.99134063720703 1066.569213867188 70.15584564208984 1053.817016601562 72.21096801757812 C 1041.10693359375 74.25933837890625 1028.93603515625 77.19049072265625 1017.390075683594 80.97101593017578 C 1005.892944335938 84.73555755615234 995.0263671875 89.33881378173828 984.8718872070312 94.74601745605469 C 974.7691650390625 100.1256866455078 965.3800659179688 106.2965774536133 956.7825317382812 113.2228622436523 C 952.7611083984375 116.4626083374023 948.9381713867188 119.8472290039062 945.319091796875 123.369140625 C 941.7102661132812 126.8808822631836 938.3046264648438 130.5286865234375 935.1070556640625 134.3050689697266 C 931.9190673828125 138.0700531005859 928.9378662109375 141.9623870849609 926.1690063476562 145.9745483398438 C 923.4086303710938 149.9743194580078 920.8592529296875 154.0928192138672 918.5255737304688 158.3226623535156 C 916.2169189453125 162.5068206787109 914.1328735351562 166.7748260498047 912.275146484375 171.1182556152344 C 910.4232177734375 175.44775390625 908.7960205078125 179.8520355224609 907.3950805664062 184.3227691650391 C 905.9984130859375 188.7790069580078 904.82666015625 193.3012084960938 903.8809204101562 197.8810729980469 C 902.938232421875 202.4460906982422 902.2201538085938 207.0684204101562 901.7280883789062 211.7400360107422 C 901.5569458007812 213.3668975830078 901.4226684570312 214.9887542724609 901.3258666992188 216.6028594970703 C 901.2291259765625 218.2151336669922 901.1695556640625 219.8197784423828 901.1472778320312 221.4140167236328 C 901.1249389648438 223.0064544677734 901.1397094726562 224.5885009765625 901.1913452148438 226.1574554443359 C 901.2431030273438 227.7246704101562 901.3318481445312 229.2789154052734 901.4575805664062 230.8173980712891 C 901.5828247070312 232.3509216308594 901.7456665039062 233.8792266845703 901.945556640625 235.399658203125 C 902.1452026367188 236.9185180664062 902.3819580078125 238.4296417236328 902.6549682617188 239.9303436279297 C 902.9277954101562 241.4295654296875 903.2371215820312 242.9184875488281 903.58203125 244.3945159912109 C 903.9266967773438 245.8691558837891 904.3073120117188 247.3309173583984 904.7229614257812 248.7772979736328 C 905.1377563476562 250.2203674316406 905.590576171875 251.6578979492188 906.0801391601562 253.0874938964844 C 906.5694580078125 254.5157623291016 907.0955810546875 255.9362030029297 907.657470703125 257.3462524414062 C 908.2188110351562 258.7550659179688 908.8158569335938 260.1535034179688 909.4479370117188 261.5393676757812 C 910.0792846679688 262.9239501953125 910.745361328125 264.2958679199219 911.4451904296875 265.6528015136719 C 912.1441650390625 267.0078125 912.8812866210938 268.3569946289062 913.6553955078125 269.6980895996094 C 914.4286499023438 271.0380249023438 915.2388305664062 272.3699951171875 916.0844116210938 273.6915588378906 C 916.9292602539062 275.0121765136719 917.8092651367188 276.3224182128906 918.7230834960938 277.6200866699219 C 919.6363525390625 278.9168701171875 920.5833129882812 280.2010498046875 921.5625 281.4705200195312 C 922.5411987304688 282.7391967773438 923.55859375 284.0016784667969 924.61279296875 285.2558898925781 C 925.6663208007812 286.5091857910156 926.7566528320312 287.7542724609375 927.8818969726562 288.9889831542969 C 929.0062255859375 290.2228393554688 930.1654663085938 291.4463806152344 931.3575439453125 292.657470703125 C 932.548828125 293.8677978515625 933.7728271484375 295.065673828125 935.02783203125 296.2490844726562 C 936.282958984375 297.4325256347656 937.5773315429688 298.6094360351562 938.9086303710938 299.7778625488281 C 940.2391967773438 300.9456176757812 941.6065063476562 302.1049194335938 943.008544921875 303.2538146972656 C 944.4092407226562 304.4019775390625 945.8447875976562 305.5398254394531 947.3123779296875 306.665283203125 C 948.779052734375 307.7901306152344 950.2776489257812 308.9026794433594 951.8057861328125 310.0008850097656 C 954.867919921875 312.201416015625 958.0780639648438 314.3660583496094 961.430419921875 316.4916381835938 C 964.7794189453125 318.6151733398438 968.2704467773438 320.6998291015625 971.8975219726562 322.7422790527344 C 975.5213623046875 324.7830810546875 979.28125 326.7818603515625 983.1707763671875 328.7353515625 C 987.0577392578125 330.6874389648438 991.0745849609375 332.5945739746094 995.2152099609375 334.4532165527344 C 998.17724609375 335.7552795410156 1000.956970214844 337.0033874511719 1003.575256347656 338.2075805664062 C 1006.1923828125 339.4112548828125 1008.648315429688 340.5711059570312 1010.963439941406 341.697021484375 C 1013.277526855469 342.8225402832031 1015.450866699219 343.9141540527344 1017.504150390625 344.9818725585938 C 1019.556640625 346.0491333007812 1021.489013671875 347.0925903320312 1023.321960449219 348.1220092773438 C 1025.339599609375 349.2553100585938 1027.23779296875 350.3741760253906 1029.022338867188 351.4824829101562 C 1030.805908203125 352.5902709960938 1032.475708007812 353.6874694824219 1034.037475585938 354.7779541015625 C 1035.598266601562 355.8678283691406 1037.050903320312 356.9508972167969 1038.401000976562 358.0311279296875 C 1039.750244140625 359.1106567382812 1040.9970703125 360.187255859375 1042.14697265625 361.2646789550781 C 1043.357177734375 362.3986206054688 1044.466430664062 363.5387268066406 1045.477416992188 364.6891479492188 C 1046.488037109375 365.8389282226562 1047.400390625 366.9988708496094 1048.218017578125 368.1732177734375 C 1049.034790039062 369.3466491699219 1049.756591796875 370.5343933105469 1050.386474609375 371.7404479980469 C 1051.015991210938 372.945556640625 1051.553588867188 374.1689453125 1052.002197265625 375.4144897460938 C 1052.455200195312 376.6722412109375 1052.818359375 377.9546203613281 1053.092041015625 379.2662353515625 C 1053.365356445312 380.5766906738281 1053.549560546875 381.9162902832031 1053.644775390625 383.2898559570312 C 1053.740112304688 384.6620483398438 1053.746459960938 386.0679321289062 1053.664794921875 387.5122375488281 C 1053.583374023438 388.9550476074219 1053.41357421875 390.43603515625 1053.156494140625 391.9598388671875 C 1052.90478515625 393.450439453125 1052.575317382812 394.9087524414062 1052.169311523438 396.3326110839844 C 1051.763671875 397.7549438476562 1051.281494140625 399.1427917480469 1050.72412109375 400.4939880371094 C 1050.167236328125 401.84375 1049.535034179688 403.1568603515625 1048.82861328125 404.4311218261719 C 1048.123046875 405.7040405273438 1047.34326171875 406.9382629394531 1046.490600585938 408.1314392089844 C 1045.621826171875 409.3471069335938 1044.677734375 410.5195617675781 1043.660278320312 411.64697265625 C 1042.64404296875 412.7733764648438 1041.554321289062 413.8548278808594 1040.393676757812 414.8898010253906 C 1039.234252929688 415.9237976074219 1038.003784179688 416.9114074707031 1036.70458984375 417.8508911132812 C 1035.406372070312 418.7894897460938 1034.039306640625 419.6801147460938 1032.605590820312 420.5210571289062 C 1031.132202148438 421.38525390625 1029.587280273438 422.1973876953125 1027.973876953125 422.9564514160156 C 1026.36181640625 423.7148742675781 1024.681396484375 424.4202575683594 1022.935852050781 425.0716857910156 C 1021.191223144531 425.7225952148438 1019.381530761719 426.3195190429688 1017.509460449219 426.861572265625 C 1015.638671875 427.4031677246094 1013.705688476562 427.8900146484375 1011.713439941406 428.3208923339844 C 1009.646484375 428.7679443359375 1007.511474609375 429.1555480957031 1005.312438964844 429.4834899902344 C 1003.114807128906 429.8112182617188 1000.853149414062 430.0794067382812 998.5316772460938 430.2877807617188 C 996.2111206054688 430.4959411621094 993.8305053710938 430.644287109375 991.3939819335938 430.7326049804688 C 988.9583740234375 430.8208312988281 986.466552734375 430.8490600585938 983.9225463867188 430.81689453125 C 981.8245239257812 430.7904357910156 979.7053833007812 430.7294006347656 977.5684204101562 430.634033203125 C 975.43212890625 430.5387573242188 973.2781372070312 430.4092712402344 971.1102294921875 430.2457885742188 C 968.9429321289062 430.0823974609375 966.7613525390625 429.8849792480469 964.5697021484375 429.6540222167969 C 962.3784790039062 429.4230651855469 960.1766967773438 429.1584777832031 957.9683227539062 428.8605346679688 C 955.9119262695312 428.5830993652344 953.849853515625 428.2769470214844 951.78515625 427.9425659179688 C 949.720703125 427.6082458496094 947.6539306640625 427.2457580566406 945.5882568359375 426.8558349609375 C 943.5225830078125 426.4659118652344 941.4579467773438 426.0484924316406 939.3980102539062 425.6042785644531 C 937.3380126953125 425.1601257324219 935.2825317382812 424.6890563964844 933.23486328125 424.1918640136719 C 931.3104858398438 423.7245483398438 929.3985595703125 423.2355346679688 927.5027465820312 422.7259521484375 C 925.6065063476562 422.2162170410156 923.7262573242188 421.6858520507812 921.864990234375 421.1357421875 C 920.0034790039062 420.5855407714844 918.160888671875 420.0155639648438 916.340576171875 419.4267578125 C 914.52001953125 418.837890625 912.7214965820312 418.230224609375 910.9481811523438 417.6045532226562 C 909.3078002929688 417.0257263183594 907.6987915039062 416.4352111816406 906.1239624023438 415.8340148925781 C 904.548828125 415.232666015625 903.0075073242188 414.6205139160156 901.5028076171875 413.9987487792969 C 899.9976806640625 413.3767700195312 898.5287475585938 412.7450866699219 897.0988159179688 412.1046447753906 C 895.6683959960938 411.4640197753906 894.27685546875 410.814697265625 892.9265747070312 410.1575927734375 L 869.1532592773438 480.4910583496094 Z M 674.8084106445312 496.1999206542969 C 670.1040649414062 496.1123352050781 665.3347778320312 495.9002075195312 660.5338745117188 495.5676574707031 C 655.7360229492188 495.2352905273438 650.9057006835938 494.7825927734375 646.07568359375 494.2134704589844 C 641.2479248046875 493.6447143554688 636.4197998046875 492.9595031738281 631.6239624023438 492.161865234375 C 626.8295288085938 491.3645629882812 622.066650390625 490.4546508789062 617.3678588867188 489.4359741210938 C 615.2557983398438 488.9781494140625 613.1774291992188 488.5027770996094 611.1362915039062 488.0108032226562 C 609.0949096679688 487.5187072753906 607.0906982421875 487.0100708007812 605.1267700195312 486.485595703125 C 603.1629028320312 485.9610900878906 601.2392578125 485.4208374023438 599.3593139648438 484.8656921386719 C 597.4791870117188 484.310546875 595.6427001953125 483.7403869628906 593.8530883789062 483.1562805175781 C 592.1139526367188 482.5885925292969 590.4395141601562 482.0145263671875 588.8327026367188 481.4350891113281 C 587.2257080078125 480.85546875 585.6861572265625 480.2705383300781 584.2167358398438 479.6812133789062 C 582.7470703125 479.091796875 581.3473510742188 478.4979553222656 580.0202026367188 477.9006958007812 C 578.6927490234375 477.3033752441406 577.4379272460938 476.7026062011719 576.2584838867188 476.0995483398438 L 575.9584350585938 475.9461975097656 L 576.023681640625 475.6482238769531 L 591.2145385742188 406.1025390625 L 591.3385620117188 405.53466796875 L 591.9035034179688 405.8055419921875 C 593.2825927734375 406.4671325683594 594.7030029296875 407.1208801269531 596.1620483398438 407.7657165527344 C 597.6206665039062 408.4103088378906 599.117919921875 409.0460205078125 600.6510620117188 409.6716003417969 C 602.1840209960938 410.2971496582031 603.7529907226562 410.9126586914062 605.355224609375 411.5170593261719 C 606.9572143554688 412.1213989257812 608.5926513671875 412.7146301269531 610.2586669921875 413.2957153320312 C 612.0001831054688 413.9031982421875 613.7638549804688 414.4932556152344 615.5462036132812 415.0649108886719 C 617.328369140625 415.6365661621094 619.1296997070312 416.1899108886719 620.9465942382812 416.7239685058594 C 622.763427734375 417.2580871582031 624.59619140625 417.7729187011719 626.441650390625 418.2676696777344 C 628.2870483398438 418.7624206542969 630.1452026367188 419.2370300292969 632.0130004882812 419.6906127929688 C 634.000244140625 420.1732177734375 635.9921875 420.6303100585938 637.9854125976562 421.0613708496094 C 639.9788208007812 421.4923706054688 641.9735107421875 421.8973388671875 643.9662475585938 422.2756042480469 C 645.9591064453125 422.6539001464844 647.949951171875 423.0054626464844 649.9354248046875 423.3296508789062 C 651.9212036132812 423.6539001464844 653.9016723632812 423.9508361816406 655.8733520507812 424.2196960449219 C 657.9895629882812 424.5082397460938 660.095947265625 424.7643737792969 662.1886596679688 424.9878540039062 C 664.2818603515625 425.21142578125 666.3615112304688 425.4023132324219 668.4241333007812 425.5601501464844 C 670.4873657226562 425.7181091308594 672.533447265625 425.843017578125 674.559326171875 425.9347839355469 C 676.585693359375 426.0264587402344 678.5916137695312 426.0849304199219 680.5736083984375 426.10986328125 C 682.9688720703125 426.1399230957031 685.3079223632812 426.1117248535156 687.587158203125 426.0255432128906 C 689.8674926757812 425.9393615722656 692.088134765625 425.7951354980469 694.2451171875 425.5931396484375 C 696.4033813476562 425.3910522460938 698.4982299804688 425.1312561035156 700.5259399414062 424.8138732910156 C 702.5547485351562 424.4962768554688 704.5164184570312 424.1211242675781 706.4074096679688 423.6885986328125 C 708.2197875976562 423.2741394042969 709.9701538085938 422.8063659667969 711.6558837890625 422.2862548828125 C 713.343017578125 421.765869140625 714.9654541015625 421.193115234375 716.5206909179688 420.5689697265625 C 718.0770263671875 419.9443664550781 719.566162109375 419.2682800292969 720.9851684570312 418.5417175292969 C 722.4052734375 417.814697265625 723.7552490234375 417.0369873046875 725.0325927734375 416.2098388671875 C 726.2679443359375 415.4097290039062 727.4361572265625 414.562744140625 728.535400390625 413.6702880859375 C 729.6357421875 412.7771911621094 730.667236328125 411.8386535644531 731.6280517578125 410.8562316894531 C 732.5897216796875 409.8729553222656 733.4806518554688 408.8457641601562 734.2991333007812 407.7762145996094 C 735.118408203125 406.7057189941406 735.8651733398438 405.5928039550781 736.5374755859375 404.4390869140625 C 737.1983642578125 403.3050842285156 737.7874145507812 402.1317138671875 738.303955078125 400.9212036132812 C 738.8211669921875 399.7095031738281 739.2657470703125 398.4605102539062 739.636962890625 397.1763916015625 C 740.0084838867188 395.8909301757812 740.3067016601562 394.5703125 740.5303344726562 393.2164611816406 C 740.75439453125 391.861328125 740.9041748046875 390.4729919433594 740.9786376953125 389.0538024902344 C 741.0548706054688 387.6022644042969 741.0548095703125 386.1920166015625 740.9774169921875 384.8186950683594 C 740.89990234375 383.4439697265625 740.7449951171875 382.1062622070312 740.5119018554688 380.8010864257812 C 740.278564453125 379.4948425292969 739.9666748046875 378.2211303710938 739.5755615234375 376.9758605957031 C 739.18408203125 375.7294616699219 738.713134765625 374.511474609375 738.1616821289062 373.3173217773438 C 737.6145629882812 372.1319885253906 736.98681640625 370.9673156738281 736.2752685546875 369.8194885253906 C 735.5632934570312 368.6708679199219 734.7674560546875 367.5390930175781 733.884765625 366.42041015625 C 733.00146484375 365.3009338378906 732.03125 364.1946105957031 730.970703125 363.0975036621094 C 729.9095458984375 361.999755859375 728.7581787109375 360.9112548828125 727.5132446289062 359.8281555175781 C 726.3206176757812 358.7904052734375 725.036376953125 357.7530517578125 723.6551513671875 356.7124633789062 C 722.2730712890625 355.6713256835938 720.7939453125 354.6269226074219 719.2118530273438 353.5755615234375 C 717.6289672851562 352.523681640625 715.9434204101562 351.4649658203125 714.1492309570312 350.3955993652344 C 712.3543090820312 349.3257141113281 710.450927734375 348.2452697753906 708.43310546875 347.1505126953125 C 706.5928955078125 346.1520690917969 704.6569213867188 345.139892578125 702.6043090820312 344.1043090820312 C 700.5510864257812 343.0683898925781 698.3814086914062 342.0090637207031 696.0748901367188 340.9167175292969 C 693.7675170898438 339.8239135742188 691.322998046875 338.6979370117188 688.7210083007812 337.5292358398438 C 686.117919921875 336.3601379394531 683.3572998046875 335.1481323242188 680.4180908203125 333.8835144042969 C 676.2815551757812 332.0679321289062 672.2572021484375 330.2049255371094 668.3516845703125 328.2979125976562 C 664.4432983398438 326.3895263671875 660.6533813476562 324.4368896484375 656.988037109375 322.443115234375 C 653.3197021484375 320.4477844238281 649.775634765625 318.4110717773438 646.3624267578125 316.3363342285156 C 642.9462280273438 314.2597351074219 639.660400390625 312.144775390625 636.511474609375 309.9947509765625 C 634.93798828125 308.9204711914062 633.3911743164062 307.8321533203125 631.8734741210938 306.7317810058594 C 630.3549194335938 305.6307983398438 628.8652954101562 304.5177001953125 627.4075927734375 303.3943786621094 C 625.9488525390625 302.2704162597656 624.5217895507812 301.1362609863281 623.12890625 299.9937744140625 C 621.7349243164062 298.8505859375 620.3753662109375 297.6990966796875 619.052490234375 296.5412292480469 C 617.7284545898438 295.3822326660156 616.4321899414062 294.2090454101562 615.1657104492188 293.0236206054688 C 613.8985595703125 291.8374633789062 612.6613159179688 290.6390686035156 611.4560546875 289.4304504394531 C 610.2498779296875 288.2210388183594 609.0761108398438 287.0014953613281 607.9361572265625 285.7737121582031 C 606.7955932617188 284.5451965332031 605.6890258789062 283.3083801269531 604.618896484375 282.0655822753906 C 603.5469970703125 280.8207702636719 602.5043334960938 279.5614624023438 601.4925537109375 278.2898254394531 C 600.4798583984375 277.0172424316406 599.498291015625 275.7323303222656 598.5489501953125 274.4372253417969 C 597.5989990234375 273.14111328125 596.6815795898438 271.8348693847656 595.7982788085938 270.5205993652344 C 594.9144897460938 269.2053527832031 594.064697265625 267.8820190429688 593.2509155273438 266.552978515625 C 592.435302734375 265.2210693359375 591.650390625 263.8743591308594 590.897216796875 262.5151977539062 C 590.1434936523438 261.1549377441406 589.4215698242188 259.7820739746094 588.7327270507812 258.399169921875 C 588.043212890625 257.0150451660156 587.3867797851562 255.6207275390625 586.7647705078125 254.2186126708984 C 586.1422119140625 252.8152465820312 585.5540771484375 251.404052734375 585.00146484375 249.9874725341797 C 584.4475708007812 248.5671081542969 583.925537109375 247.1316528320312 583.4364013671875 245.6836395263672 C 582.9468994140625 244.2342834472656 582.4903564453125 242.7722930908203 582.0672607421875 241.3001708984375 C 581.6438598632812 239.8265991210938 581.254150390625 238.3428802490234 580.8989868164062 236.8515625 C 580.54345703125 235.3587188720703 580.2224731445312 233.8582153320312 579.9368896484375 232.3526306152344 C 579.6502685546875 230.842529296875 579.3973999023438 229.3170471191406 579.1785888671875 227.7788543701172 C 578.9594116210938 226.2390594482422 578.7742919921875 224.6864776611328 578.6234741210938 223.1238250732422 C 578.4725341796875 221.5594177246094 578.3558349609375 219.9849548339844 578.2740478515625 218.4029541015625 C 578.1920776367188 216.8191833496094 578.1448974609375 215.2279815673828 578.1327514648438 213.6319274902344 C 578.115478515625 211.3587799072266 578.1537475585938 209.090087890625 578.2473754882812 206.8298187255859 C 578.3412475585938 204.56591796875 578.490478515625 202.3104095458984 578.695068359375 200.0672607421875 C 578.9000854492188 197.820556640625 579.1604614257812 195.5861663818359 579.47607421875 193.3681640625 C 579.7921752929688 191.1466217041016 580.1637573242188 188.9414978027344 580.5905151367188 186.7568359375 C 581.0171508789062 184.5731811523438 581.5003662109375 182.4017944335938 582.039306640625 180.2464447021484 C 582.5791625976562 178.0877380371094 583.1748046875 175.945068359375 583.825439453125 173.8222503662109 C 584.4769287109375 171.696044921875 585.1835327148438 169.5897979736328 585.9442138671875 167.5072784423828 C 586.7061157226562 165.4215393066406 587.5220947265625 163.359619140625 588.3914184570312 161.3253326416016 C 590.1614990234375 157.1824188232422 592.1492919921875 153.1489410400391 594.3511352539062 149.2320709228516 C 596.5595703125 145.30322265625 598.9830932617188 141.4921264648438 601.6177368164062 137.8060913085938 C 604.26025390625 134.1091613769531 607.1148681640625 130.5383758544922 610.1776123046875 127.1011505126953 C 613.2491455078125 123.654167175293 616.5296020507812 120.3418960571289 620.014892578125 117.1718368530273 C 627.4527587890625 110.4066314697266 635.72265625 104.3805618286133 644.7539672851562 99.12844848632812 C 653.830322265625 93.85007476806641 663.66845703125 89.35774230957031 674.1940307617188 85.68534088134766 C 684.7633666992188 81.99767303466797 696.0161743164062 79.1400146484375 707.8746337890625 77.14483642578125 C 719.7713623046875 75.14318084716797 732.2661743164062 74.01155090332031 745.2774658203125 73.78024291992188 C 750.5236206054688 73.68701171875 755.7137451171875 73.72866821289062 760.83837890625 73.90462493896484 C 765.9666748046875 74.08067321777344 771.0283203125 74.39120483398438 776.0138549804688 74.83550262451172 C 781.0016479492188 75.27997589111328 785.9124145507812 75.85825347900391 790.7363891601562 76.56956481933594 C 795.5615234375 77.28108215332031 800.2992553710938 78.12554168701172 804.939453125 79.10208892822266 C 806.9790649414062 79.53134918212891 809.0001831054688 79.98657989501953 810.9994506835938 80.46686553955078 C 812.998779296875 80.94715881347656 814.9759521484375 81.45248413085938 816.9276123046875 81.98184204101562 C 818.8792724609375 82.51121520996094 820.805419921875 83.06465148925781 822.7025756835938 83.64126586914062 C 824.599609375 84.21782684326172 826.4674682617188 84.81742858886719 828.302734375 85.43920135498047 C 829.9849243164062 86.00907897949219 831.6419677734375 86.59828948974609 833.2711181640625 87.20558929443359 C 834.9000244140625 87.81284332275391 836.5011596679688 88.43812561035156 838.0713500976562 89.08046722412109 C 839.6415405273438 89.72267150878906 841.1809692382812 90.38180541992188 842.6868896484375 91.05679321289062 C 844.192626953125 91.73159027099609 845.6646118164062 92.42219543457031 847.1004638671875 93.12739562988281 L 847.484130859375 93.31577301025391 L 847.3493041992188 93.75140380859375 L 820.455078125 180.7649230957031 L 820.2520751953125 181.4216918945312 L 819.6580200195312 181.1263580322266 C 817.06494140625 179.8373107910156 814.4673461914062 178.6243591308594 811.8562622070312 177.4840850830078 C 809.2442016601562 176.3434143066406 806.6188354492188 175.2756195068359 803.9708862304688 174.2772216796875 C 801.322509765625 173.2785797119141 798.6517944335938 172.3495788574219 795.9500122070312 171.4867553710938 C 793.2474365234375 170.6237945556641 790.5140991210938 169.8270263671875 787.7402954101562 169.0930786132812 C 783.9581909179688 168.0923004150391 780.1233520507812 167.2198333740234 776.2431030273438 166.4767150878906 C 772.3634643554688 165.7336120605469 768.439208984375 165.1199645996094 764.4780883789062 164.6365966796875 C 760.5182495117188 164.1534423828125 756.5220947265625 163.8005065917969 752.4971313476562 163.5787353515625 C 748.4743041992188 163.3570251464844 744.4234619140625 163.2663879394531 740.352294921875 163.3074493408203 C 737.9397583007812 163.3318023681641 735.5784912109375 163.4256744384766 733.2725219726562 163.5885162353516 C 730.9677124023438 163.7512512207031 728.71826171875 163.9829254150391 726.52783203125 164.2827758789062 C 724.3387451171875 164.5825653076172 722.2091064453125 164.9505004882812 720.1425170898438 165.385986328125 C 718.077392578125 165.8212280273438 716.0755004882812 166.3239135742188 714.140625 166.8934478759766 C 712.3322143554688 167.4257659912109 710.5839233398438 168.0158538818359 708.8984985351562 168.6621398925781 C 707.214111328125 169.3080139160156 705.5924682617188 170.0099792480469 704.0364990234375 170.7667846679688 C 702.4816284179688 171.5230102539062 700.9923706054688 172.3338165283203 699.5713500976562 173.1978454589844 C 698.1514282226562 174.0611572265625 696.7996826171875 174.9775238037109 695.5187377929688 175.9455871582031 C 694.3073120117188 176.8610992431641 693.1631469726562 177.8192443847656 692.08837890625 178.8181457519531 C 691.0143432617188 179.816162109375 690.0093994140625 180.8547973632812 689.0750732421875 181.9320220947266 C 688.141357421875 183.0083312988281 687.2782592773438 184.1231689453125 686.4871215820312 185.2745819091797 C 685.6966552734375 186.4249725341797 684.9780883789062 187.6118316650391 684.3330688476562 188.8332061767578 C 683.7090454101562 190.0147705078125 683.157470703125 191.2210845947266 682.6787719726562 192.4497528076172 C 682.2005615234375 193.6773071289062 681.7950439453125 194.9272155761719 681.4630737304688 196.1973571777344 C 681.131103515625 197.4662475585938 680.8723754882812 198.7551879882812 680.687255859375 200.0620422363281 C 680.5023193359375 201.3676147460938 680.390869140625 202.6910705566406 680.353271484375 204.0300445556641 C 680.3319091796875 204.7946624755859 680.3292236328125 205.5405578613281 680.34521484375 206.2701416015625 C 680.361328125 206.9993591308594 680.3961181640625 207.7123870849609 680.4498901367188 208.4116363525391 C 680.503662109375 209.1105804443359 680.5764770507812 209.7958068847656 680.6683959960938 210.4698181152344 C 680.7601928710938 211.1435089111328 680.8712768554688 211.8060455322266 681.0015869140625 212.4598236083984 C 681.134521484375 213.1264953613281 681.2864990234375 213.7797546386719 681.4584350585938 214.4219207763672 C 681.63037109375 215.0637969970703 681.822021484375 215.6944580078125 682.03466796875 216.3162689208984 C 682.2469482421875 216.9377593994141 682.4800415039062 217.5503692626953 682.734619140625 218.1563720703125 C 682.9889526367188 218.7621307373047 683.2645874023438 219.3611297607422 683.5623779296875 219.9556579589844 C 684.1535034179688 221.1356506347656 684.835205078125 222.2970123291016 685.6109619140625 223.44384765625 C 686.3860473632812 224.58984375 687.255126953125 225.7214202880859 688.2212524414062 226.8423919677734 C 689.1868896484375 227.9627227783203 690.2496948242188 229.0726013183594 691.4129638671875 230.1760406494141 C 692.5753784179688 231.2788238525391 693.838623046875 232.375244140625 695.205322265625 233.4691925048828 C 698.0098266601562 235.7139739990234 701.247314453125 237.9512786865234 704.9259643554688 240.2225189208984 C 708.601318359375 242.4914703369141 712.7172241210938 244.79443359375 717.2819213867188 247.1723785400391 C 721.8424682617188 249.5481414794922 726.85107421875 251.9988250732422 732.3154907226562 254.5650024414062 C 737.7752075195312 257.1290893554688 743.6898193359375 259.8083801269531 750.0665893554688 262.6433410644531 C 752.19921875 263.5695190429688 754.3004150390625 264.51123046875 756.3670043945312 265.4666442871094 C 758.4330444335938 266.4217834472656 760.4639892578125 267.3905639648438 762.4564819335938 268.3713073730469 C 764.448486328125 269.3516845703125 766.40185546875 270.3439331054688 768.3133544921875 271.3463134765625 C 770.2239990234375 272.3482971191406 772.0927734375 273.3603820800781 773.9157104492188 274.3807373046875 C 775.7225341796875 275.3919372558594 777.497802734375 276.4188232421875 779.238525390625 277.4592895507812 C 780.978515625 278.4993591308594 782.68408203125 279.5530700683594 784.3522338867188 280.6185302734375 C 786.01953125 281.6834716796875 787.6494140625 282.7601318359375 789.2388305664062 283.8466186523438 C 790.8276977539062 284.9326171875 792.3758544921875 286.0282897949219 793.8809814453125 287.1318969726562 C 795.371337890625 288.2246398925781 796.8300170898438 289.3330993652344 798.2550048828125 290.4552612304688 C 799.6790771484375 291.5768737792969 801.0695190429688 292.7121276855469 802.423583984375 293.8590087890625 C 803.7769775390625 295.0051879882812 805.093994140625 296.1629943847656 806.37255859375 297.330322265625 C 807.6500854492188 298.4969177246094 808.8893432617188 299.6730651855469 810.0874633789062 300.8565979003906 C 811.2727661132812 302.02734375 812.4265747070312 303.2139587402344 813.5473022460938 304.4142761230469 C 814.6670532226562 305.6138610839844 815.7540283203125 306.8271484375 816.8057861328125 308.0518798828125 C 817.85693359375 309.2758178710938 818.873291015625 310.51123046875 819.8526611328125 311.7557983398438 C 820.831298828125 312.9995422363281 821.7733764648438 314.2525634765625 822.6766967773438 315.5125427246094 C 823.5691528320312 316.7572326660156 824.4305419921875 318.0180969238281 825.2595825195312 319.2926635742188 C 826.0880126953125 320.5662536621094 826.8839721679688 321.8534851074219 827.6463012695312 323.1521301269531 C 828.408203125 324.4497680664062 829.1363525390625 325.7586975097656 829.8296508789062 327.0766296386719 C 830.5222778320312 328.3934631347656 831.18017578125 329.7193603515625 831.8017578125 331.0518188476562 C 832.4149169921875 332.3662414550781 832.9972534179688 333.69677734375 833.5482788085938 335.0411376953125 C 834.098876953125 336.3843688964844 834.6178588867188 337.7412414550781 835.1046752929688 339.109375 C 835.5908813476562 340.4762573242188 836.0451049804688 341.8543701171875 836.4661254882812 343.2412719726562 C 836.88671875 344.6269226074219 837.2744750976562 346.021240234375 837.6282348632812 347.4219055175781 C 837.9767456054688 348.8011779785156 838.294921875 350.19677734375 838.5826416015625 351.6062316894531 C 838.8699951171875 353.0142822265625 839.1268920898438 354.4361267089844 839.3529663085938 355.8691101074219 C 839.57861328125 357.3006286621094 839.7736206054688 358.7432861328125 839.9375 360.1944885253906 C 840.1011962890625 361.6441955566406 840.2338256835938 363.1024780273438 840.3348388671875 364.5666198730469 C 840.4342041015625 366.006103515625 840.5039672851562 367.4620971679688 840.5440063476562 368.931884765625 C 840.5841674804688 370.4002075195312 840.5947265625 371.8822326660156 840.575927734375 373.3754272460938 C 840.5570678710938 374.8670043945312 840.5087890625 376.3695678710938 840.4313354492188 377.880615234375 C 840.3538208007812 379.389892578125 840.247314453125 380.9075622558594 840.1115112304688 382.430908203125 C 839.7166137695312 386.8595886230469 839.0996704101562 391.196533203125 838.2639770507812 395.435302734375 C 837.4307861328125 399.6602783203125 836.3802490234375 403.7879333496094 835.1153564453125 407.8118286132812 C 833.8544311523438 411.8229675292969 832.3807983398438 415.7312316894531 830.6969604492188 419.5302429199219 C 829.0185546875 423.317626953125 827.1312255859375 426.9967041015625 825.0383911132812 430.5613403320312 C 822.9523315429688 434.114501953125 820.669189453125 437.5414123535156 818.19482421875 440.8375244140625 C 815.7276611328125 444.1242065429688 813.0700073242188 447.2811584472656 810.2274780273438 450.3040466308594 C 807.3927001953125 453.3185119628906 804.3738403320312 456.2000732421875 801.176025390625 458.9442443847656 C 797.9868774414062 461.6811218261719 794.6192016601562 464.2816772460938 791.0785522460938 466.7415161132812 C 787.4801635742188 469.2413635253906 783.7135620117188 471.5881652832031 779.7861328125 473.7796325683594 C 775.8680419921875 475.9658508300781 771.7889404296875 477.9976196289062 767.5567626953125 479.8726501464844 C 763.333984375 481.7435913085938 758.9578247070312 483.4587097167969 754.4354248046875 485.0154113769531 C 749.9223022460938 486.5689697265625 745.262939453125 487.9651794433594 740.4641723632812 489.2012634277344 C 735.5030517578125 490.4791870117188 730.3997192382812 491.5838317871094 725.1635131835938 492.5148620605469 C 719.9360961914062 493.4441833496094 714.5748901367188 494.2006530761719 709.0892333984375 494.7838134765625 C 703.6116943359375 495.3660583496094 698.0087280273438 495.7756042480469 692.2891845703125 496.01171875 C 686.5768432617188 496.24755859375 680.7469482421875 496.310546875 674.8084106445312 496.1999206542969 Z M 577.0050659179688 475.5306701660156 C 578.1608276367188 476.1148986816406 579.3883056640625 476.6969909667969 580.6849975585938 477.2760314941406 C 581.9815673828125 477.8549499511719 583.3472900390625 478.4307861328125 584.7799072265625 479.0025024414062 C 586.2122802734375 479.57421875 587.7116088867188 480.1418762207031 589.2754516601562 480.7045593261719 C 590.839111328125 481.2672119140625 592.46728515625 481.8248901367188 594.1575927734375 482.3766784667969 C 595.9393310546875 482.9582824707031 597.7679443359375 483.5260009765625 599.6402587890625 484.078857421875 C 601.5123291015625 484.6316833496094 603.4280395507812 485.1697387695312 605.3841552734375 485.6921081542969 C 607.340087890625 486.2143859863281 609.3364868164062 486.7210998535156 611.3697509765625 487.211181640625 C 613.403076171875 487.7012939453125 615.4735717773438 488.1748657226562 617.5775756835938 488.6309509277344 C 622.2613525390625 489.646240234375 627.0091552734375 490.5531616210938 631.7883911132812 491.3479309082031 C 636.5686645507812 492.142822265625 641.38134765625 492.8256530761719 646.1934814453125 493.3924865722656 C 651.0078125 493.9595947265625 655.8225708007812 494.4106140136719 660.6047973632812 494.7416381835938 C 665.3900146484375 495.0728759765625 670.1436767578125 495.2840881347656 674.83251953125 495.3710327148438 C 680.7486572265625 495.4808349609375 686.555908203125 495.4176635742188 692.2459106445312 495.1824035644531 C 697.9427490234375 494.9468688964844 703.5232543945312 494.5387268066406 708.9782104492188 493.9584350585938 C 714.441162109375 493.3774108886719 719.77978515625 492.623779296875 724.9845581054688 491.6978759765625 C 730.197998046875 490.7703857421875 735.2786254882812 489.6700439453125 740.2171630859375 488.3971557617188 C 744.9861450195312 487.1679077148438 749.6162719726562 485.7798156738281 754.1006469726562 484.2355041503906 C 758.5940551757812 482.6880798339844 762.9417724609375 480.9835205078125 767.13671875 479.1243591308594 C 771.3406982421875 477.2611083984375 775.39208984375 475.2422485351562 779.2833251953125 473.0702819824219 C 783.18359375 470.8931274414062 786.9236450195312 468.5618286132812 790.4959716796875 466.0787353515625 C 794.0068969726562 463.6382446289062 797.3460693359375 461.0582275390625 800.5083618164062 458.3430786132812 C 803.6788330078125 455.6209106445312 806.6718139648438 452.762451171875 809.48193359375 449.7722473144531 C 812.2998046875 446.7738952636719 814.9342041015625 443.642578125 817.379638671875 440.3829345703125 C 819.8320922851562 437.1138610839844 822.0947265625 433.7153015136719 824.1617431640625 430.191650390625 C 826.2368774414062 426.6545104980469 828.1079711914062 423.0035705566406 829.771728515625 419.2449340820312 C 831.4409790039062 415.4747924804688 832.9016723632812 411.5960388183594 834.1512451171875 407.6149291992188 C 835.4046020507812 403.6212463378906 836.4453735351562 399.5242919921875 837.2704467773438 395.33056640625 C 838.0982055664062 391.1233520507812 838.7088012695312 386.818359375 839.0990600585938 382.4221496582031 C 839.2333374023438 380.9098510742188 839.338623046875 379.4032287597656 839.4149780273438 377.9049377441406 C 839.4912719726562 376.4050598144531 839.538818359375 374.9136657714844 839.5569458007812 373.4332580566406 C 839.5750122070312 371.9512329101562 839.5641479492188 370.4804382324219 839.5237426757812 369.0232849121094 C 839.4834594726562 367.5646362304688 839.4137573242188 366.1198425292969 839.3145141601562 364.6915283203125 C 839.2136840820312 363.2397766113281 839.0819091796875 361.7940979003906 838.9192504882812 360.3569030761719 C 838.7561645507812 358.9181518554688 838.5623779296875 357.4879760742188 838.3380126953125 356.0689697265625 C 838.1134643554688 354.6484985351562 837.8583374023438 353.2391052246094 837.5729370117188 351.8434753417969 C 837.287353515625 350.4464721679688 836.971435546875 349.063232421875 836.6255493164062 347.6962280273438 C 836.2744750976562 346.30859375 835.8900146484375 344.92724609375 835.4728393554688 343.5545959472656 C 835.0552368164062 342.1806030273438 834.6048583984375 340.8153991699219 834.1224975585938 339.4612121582031 C 833.639892578125 338.1058959960938 833.1251831054688 336.7617492675781 832.5794067382812 335.43115234375 C 832.0331420898438 334.0994567871094 831.4556274414062 332.7813720703125 830.8477783203125 331.4794006347656 C 830.2313842773438 330.1592407226562 829.5791625976562 328.8456420898438 828.892578125 327.5408935546875 C 828.205078125 326.2350769042969 827.483154296875 324.9381713867188 826.7278442382812 323.6524353027344 C 825.9720458984375 322.36572265625 825.1827392578125 321.0902404785156 824.3612670898438 319.8282470703125 C 823.5393676757812 318.5652770996094 822.6853637695312 317.3160095214844 821.8004150390625 316.08251953125 C 820.9041137695312 314.8330993652344 819.9696044921875 313.590576171875 818.9986572265625 312.357177734375 C 818.0267944335938 311.1228942871094 817.0186767578125 309.8977661132812 815.9756469726562 308.6838989257812 C 814.9318237304688 307.46923828125 813.8534545898438 306.2659301757812 812.7420654296875 305.0760803222656 C 811.6300048828125 303.8855285644531 810.4850463867188 302.70849609375 809.3089599609375 301.5472106933594 C 808.1187744140625 300.3719787597656 806.8878173828125 299.2041320800781 805.6187133789062 298.0457763671875 C 804.3486938476562 296.8866271972656 803.0401000976562 295.73681640625 801.69580078125 294.5985107421875 C 800.3504028320312 293.4595336914062 798.9691162109375 292.33203125 797.5540161132812 291.2180480957031 C 796.1383056640625 290.1034240722656 794.688720703125 289.00244140625 793.2078857421875 287.9169311523438 C 791.7109985351562 286.8196105957031 790.1708374023438 285.7300720214844 788.5904541015625 284.6502075195312 C 787.0093994140625 283.56982421875 785.3881225585938 282.4991149902344 783.7295532226562 281.4400634765625 C 782.0700073242188 280.3804321289062 780.373291015625 279.3324279785156 778.6422119140625 278.2979736328125 C 776.91015625 277.2630310058594 775.1439208984375 276.2416381835938 773.3463134765625 275.2356872558594 C 771.5308837890625 274.2198486328125 769.6699829101562 273.2122802734375 767.7672119140625 272.2146606445312 C 765.8637084960938 271.2166442871094 763.9180297851562 270.2286071777344 761.9339599609375 269.2523193359375 C 759.94921875 268.2756958007812 757.9259033203125 267.310791015625 755.8676147460938 266.3594055175781 C 753.808837890625 265.4077453613281 751.7150268554688 264.4695739746094 749.5897216796875 263.5467224121094 C 743.196044921875 260.7046813964844 737.2650756835938 258.0182800292969 731.7893676757812 255.4467163085938 C 726.3089599609375 252.8729095458984 721.284423828125 250.4140777587891 716.70751953125 248.0290985107422 C 712.1265869140625 245.6419830322266 707.9940795898438 243.3288116455078 704.3011474609375 241.0479888916016 C 700.6046142578125 238.7650146484375 697.3485107421875 236.5143432617188 694.5238647460938 234.2541351318359 C 691.7781372070312 232.0571899414062 689.43408203125 229.8470458984375 687.4674682617188 227.5751037597656 C 685.4984130859375 225.3003845214844 683.907470703125 222.9632263183594 682.6703491210938 220.5147094726562 C 681.4315795898438 218.0625152587891 680.5476684570312 215.4979858398438 679.9945068359375 212.771484375 C 679.4404907226562 210.0401458740234 679.2182006835938 207.1453552246094 679.3040771484375 204.0369720458984 C 679.34228515625 202.6584014892578 679.45654296875 201.2956695556641 679.6467895507812 199.9511260986328 C 679.8369140625 198.6052856445312 680.10302734375 197.2776794433594 680.4444580078125 195.9705352783203 C 680.7861938476562 194.6621704101562 681.2035522460938 193.3743286132812 681.6959838867188 192.1094055175781 C 682.1888427734375 190.8432159423828 682.7567749023438 189.6000213623047 683.3994750976562 188.3821105957031 C 684.0631103515625 187.1246643066406 684.8019409179688 185.9029083251953 685.6144409179688 184.718994140625 C 686.427734375 183.5339050292969 687.315185546875 182.3867492675781 688.2744140625 181.2794189453125 C 689.23486328125 180.1710815429688 690.2673950195312 179.1027679443359 691.3707885742188 178.0765228271484 C 692.4750366210938 177.0492858886719 693.6502685546875 176.0642700195312 694.89453125 175.1233673095703 C 696.2027587890625 174.1341552734375 697.5827026367188 173.1979064941406 699.0313720703125 172.3160552978516 C 700.4813842773438 171.4335174560547 702.00048828125 170.6055297851562 703.5857543945312 169.83349609375 C 705.1723022460938 169.0608673095703 706.8250122070312 168.3444061279297 708.541259765625 167.6854858398438 C 710.2588500976562 167.0261688232422 712.0397338867188 166.4245147705078 713.8812866210938 165.8820343017578 C 715.84130859375 165.3046875 717.8685913085938 164.7951202392578 719.9592895507812 164.3539123535156 C 722.0514526367188 163.9123840332031 724.2069091796875 163.5393829345703 726.421875 163.2354125976562 C 728.6382446289062 162.9313049316406 730.9138793945312 162.6964263916016 733.244873046875 162.5313262939453 C 735.5771484375 162.3661041259766 737.9646606445312 162.2708435058594 740.4035034179688 162.2460021972656 C 744.5003662109375 162.2043151855469 748.5765991210938 162.2952117919922 752.6249389648438 162.5180358886719 C 756.6751708984375 162.7409973144531 760.69677734375 163.0959777832031 764.6820068359375 163.5821075439453 C 768.6681518554688 164.0684051513672 772.617431640625 164.6858520507812 776.5221557617188 165.4337158203125 C 780.427001953125 166.1815185546875 784.28662109375 167.0596008300781 788.0930786132812 168.0668334960938 C 790.8317260742188 168.7915191650391 793.5313110351562 169.5770263671875 796.2005615234375 170.4266052246094 C 798.8692626953125 171.2761383056641 801.5077514648438 172.1896209716797 804.1241455078125 173.1704254150391 C 806.739990234375 174.1509857177734 809.3336181640625 175.1987152099609 811.9137573242188 176.3168182373047 C 814.4932250976562 177.4345550537109 817.0588989257812 178.6224822998047 819.6194458007812 179.8838958740234 L 846.1434326171875 93.95615386962891 C 844.7434692382812 93.27434539794922 843.3091430664062 92.60643005371094 841.843017578125 91.95349884033203 C 840.3765258789062 91.30048370361328 838.8785400390625 90.66243743896484 837.3511962890625 90.04042816162109 C 835.82373046875 89.41835784912109 834.2670288085938 88.8123779296875 832.6838989257812 88.22355651855469 C 831.1005249023438 87.63465118408203 829.4907836914062 87.06300354003906 827.8569946289062 86.50953674316406 C 826.031982421875 85.89134979248047 824.1746215820312 85.29518127441406 822.2881469726562 84.72193908691406 C 820.4015502929688 84.14861297607422 818.4862060546875 83.59825897216797 816.5452270507812 83.07180023193359 C 814.6040649414062 82.54536437988281 812.6376953125 82.04278564453125 810.6492919921875 81.56509399414062 C 808.6607055664062 81.08741760253906 806.6505126953125 80.63459014892578 804.6217651367188 80.20762634277344 C 800.0029296875 79.23555755615234 795.2869262695312 78.39485931396484 790.4833374023438 77.68646240234375 C 785.6812133789062 76.978271484375 780.7924194335938 76.40245056152344 775.8264770507812 75.95973968505859 C 770.863037109375 75.51725006103516 765.823486328125 75.20782470703125 760.7173461914062 75.03221130371094 C 755.6148681640625 74.85672760009766 750.4468383789062 74.81478118896484 745.2229614257812 74.90714263916016 C 732.2854614257812 75.13587188720703 719.862548828125 76.25823211669922 708.0357666015625 78.24410247802734 C 696.2467651367188 80.2236328125 685.0612182617188 83.05929565429688 674.5563354492188 86.71892547607422 C 664.0946044921875 90.36351013183594 654.3175048828125 94.82209777832031 645.298583984375 100.0611190795898 C 636.3243408203125 105.2742614746094 628.1082763671875 111.2559204101562 620.7200927734375 117.9716720581055 C 617.2640991210938 121.1132736206055 614.0108642578125 124.3958206176758 610.9649047851562 127.8118591308594 C 607.9273681640625 131.2183990478516 605.0962524414062 134.7572479248047 602.4754638671875 138.4212799072266 C 599.8622436523438 142.0746002197266 597.4581298828125 145.8518371582031 595.2673950195312 149.7458648681641 C 593.0831909179688 153.6281433105469 591.111083984375 157.6261444091797 589.3547973632812 161.7326507568359 C 587.6171875 165.7951507568359 586.1008911132812 169.9394989013672 584.806640625 174.1575775146484 C 583.516357421875 178.3624420166016 582.4465942382812 182.6404113769531 581.5979614257812 186.9833679199219 C 580.7517700195312 191.3126068115234 580.1253662109375 195.7064361572266 579.718994140625 200.1566772460938 C 579.31396484375 204.5929107666016 579.1276245117188 209.0852355957031 579.1604614257812 213.6259155273438 C 579.1719360351562 215.207275390625 579.218017578125 216.7838745117188 579.2987060546875 218.3529357910156 C 579.3793334960938 219.9203033447266 579.4942626953125 221.4802398681641 579.6431884765625 223.0301361083984 C 579.7921142578125 224.5783538818359 579.9750366210938 226.1165466308594 580.1914672851562 227.6419525146484 C 580.4078979492188 229.1658630371094 580.6578369140625 230.6771087646484 580.941162109375 232.1730804443359 C 581.2235107421875 233.6642913818359 581.540771484375 235.1504211425781 581.8924560546875 236.6289978027344 C 582.2437133789062 238.1060791015625 582.6292724609375 239.57568359375 583.048095703125 241.03515625 C 583.466552734375 242.4933013916016 583.91845703125 243.9414520263672 584.4027709960938 245.3770446777344 C 584.8869018554688 246.8114013671875 585.4033813476562 248.2331695556641 585.9515991210938 249.6400909423828 C 586.4985961914062 251.0437927246094 587.0809936523438 252.4421997070312 587.697509765625 253.8328704833984 C 588.3134155273438 255.2223358154297 588.96337890625 256.6041564941406 589.646240234375 257.9759216308594 C 590.3284912109375 259.3465270996094 591.0435180664062 260.7071228027344 591.790283203125 262.0554504394531 C 592.5363159179688 263.4025573730469 593.3138427734375 264.7374267578125 594.1217651367188 266.0577087402344 C 594.9286499023438 267.3761596679688 595.7711791992188 268.6889343261719 596.647705078125 269.993896484375 C 597.5234985351562 271.2977905273438 598.433349609375 272.5939331054688 599.3755493164062 273.8799743652344 C 600.317138671875 275.1651306152344 601.2908325195312 276.440185546875 602.29541015625 277.703125 C 603.2991333007812 278.9651184082031 604.33349609375 280.2149047851562 605.3969116210938 281.4504699707031 C 606.4595947265625 282.6851501464844 607.5585327148438 283.9139709472656 608.69140625 285.1346435546875 C 609.8235473632812 286.3545227050781 610.9896240234375 287.5663757324219 612.187744140625 288.7682189941406 C 613.385009765625 289.9692077636719 614.6141967773438 291.16015625 615.8731079101562 292.3390502929688 C 617.1312866210938 293.5171813964844 618.419189453125 294.6832580566406 619.73486328125 295.8352661132812 C 621.0506591796875 296.9872741699219 622.4030151367188 298.1329650878906 623.7894287109375 299.2704467773438 C 625.1751098632812 300.4072570800781 626.5947265625 301.5358581542969 628.0460205078125 302.654296875 C 629.496337890625 303.7721557617188 630.9783935546875 304.8799133300781 632.4891967773438 305.9756164550781 C 633.9993896484375 307.0707397460938 635.5385131835938 308.1539001464844 637.1041259765625 309.2231750488281 C 640.2412109375 311.3656616210938 643.5147094726562 313.4732666015625 646.9187622070312 315.5428466796875 C 650.3197021484375 317.6105041503906 653.8511352539062 319.6404418945312 657.5068359375 321.6292114257812 C 661.1594848632812 323.6163940429688 664.9365844726562 325.5627136230469 668.8316040039062 327.4649353027344 C 672.72412109375 329.3658447265625 676.73486328125 331.222900390625 680.8578491210938 333.0327758789062 C 683.8042602539062 334.3007507324219 686.5722045898438 335.51611328125 689.1825561523438 336.6888122558594 C 691.7916870117188 337.8609924316406 694.243408203125 338.990478515625 696.5581665039062 340.0870361328125 C 698.871826171875 341.1831359863281 701.0486450195312 342.2462463378906 703.109130859375 343.2861022949219 C 705.1688232421875 344.3255615234375 707.1121215820312 345.3417663574219 708.959716796875 346.3444213867188 C 710.99365234375 347.4482116699219 712.9127807617188 348.5379943847656 714.72314453125 349.6175537109375 C 716.53271484375 350.6965942382812 718.233154296875 351.7652893066406 719.8306274414062 352.8275451660156 C 721.4271240234375 353.8892211914062 722.9204711914062 354.9442749023438 724.31640625 355.9965515136719 C 725.7114868164062 357.0482788085938 727.0092163085938 358.0970764160156 728.2152099609375 359.146728515625 C 729.4844360351562 360.25146484375 730.65869140625 361.3622741699219 731.7412109375 362.483154296875 C 732.8230590820312 363.6034240722656 733.8131103515625 364.733642578125 734.7147216796875 365.8778686523438 C 735.6158447265625 367.0213623046875 736.4283447265625 368.1787414550781 737.15576171875 369.35400390625 C 737.8827514648438 370.5284118652344 738.524658203125 371.7206420898438 739.0846557617188 372.9345703125 C 739.650146484375 374.160400390625 740.133056640625 375.4101867675781 740.5344848632812 376.6886291503906 C 740.935546875 377.9659118652344 741.25537109375 379.2717590332031 741.4944458007812 380.610595703125 C 741.7333374023438 381.9482421875 741.8919677734375 383.3188171386719 741.97119140625 384.7268676757812 C 742.0502319335938 386.1333923339844 742.0499877929688 387.5773010253906 741.9714965820312 389.0630187988281 C 741.8946533203125 390.516357421875 741.7406616210938 391.9383850097656 741.5101928710938 393.3267517089844 C 741.280029296875 394.7137451171875 740.9735107421875 396.0671081542969 740.591796875 397.3848876953125 C 740.2102661132812 398.701171875 739.7535400390625 399.9818420410156 739.2221069335938 401.2246704101562 C 738.6914672851562 402.4662780761719 738.0862426757812 403.6701354980469 737.4073486328125 404.8340759277344 C 736.7158813476562 406.0199584960938 735.9480590820312 407.1636962890625 735.10595703125 408.2636413574219 C 734.2647705078125 409.3625793457031 733.3491821289062 410.417724609375 732.3612060546875 411.4275512695312 C 731.3742065429688 412.4364929199219 730.3148803710938 413.4002075195312 729.1851806640625 414.3170166015625 C 728.0562744140625 415.2330322265625 726.85693359375 416.1022644042969 725.5889892578125 416.9230651855469 C 724.2859497070312 417.7665405273438 722.9093017578125 418.559326171875 721.4620361328125 419.3003540039062 C 720.0159912109375 420.040771484375 718.4993896484375 420.7295532226562 716.9149780273438 421.3656311035156 C 715.3314819335938 422.001220703125 713.6804809570312 422.5841979980469 711.96435546875 423.1136779785156 C 710.2493896484375 423.6427001953125 708.4694213867188 424.1183166503906 706.627197265625 424.5393981933594 C 704.7158813476562 424.9762573242188 702.7335815429688 425.3551940917969 700.6841430664062 425.6758728027344 C 698.6359252929688 425.9963989257812 696.5205688476562 426.2588500976562 694.3419189453125 426.4629211425781 C 692.1641845703125 426.6668090820312 689.9230346679688 426.8123474121094 687.6222534179688 426.8993530273438 C 685.3223876953125 426.9862365722656 682.962646484375 427.0146179199219 680.5469360351562 426.9841003417969 C 678.5546875 426.9589233398438 676.5386352539062 426.9000549316406 674.501953125 426.8077392578125 C 672.4659423828125 426.7154846191406 670.4093627929688 426.5897521972656 668.3361206054688 426.4309692382812 C 666.2633666992188 426.2722778320312 664.1732177734375 426.0803527832031 662.0700073242188 425.8556823730469 C 659.9672241210938 425.6310729980469 657.8507690429688 425.3735656738281 655.7244873046875 425.0835571289062 C 653.7445068359375 424.8134765625 651.7559814453125 424.515380859375 649.7620849609375 424.1897888183594 C 647.768310546875 423.8641662597656 645.769287109375 423.5111389160156 643.7683715820312 423.1312866210938 C 641.7674560546875 422.7514343261719 639.7645874023438 422.3447570800781 637.7631225585938 421.9119873046875 C 635.7617797851562 421.4791870117188 633.7617797851562 421.0202026367188 631.7664794921875 420.5356750488281 C 629.8912353515625 420.0802612304688 628.0254516601562 419.6036987304688 626.1725463867188 419.1069641113281 C 624.319580078125 418.6102294921875 622.4793701171875 418.0932922363281 620.6550903320312 417.5570068359375 C 618.8306884765625 417.020751953125 617.0220336914062 416.4651794433594 615.232421875 415.8912048339844 C 613.442626953125 415.3171691894531 611.6716918945312 414.7247314453125 609.9226684570312 414.11474609375 C 608.304931640625 413.5504760742188 606.715576171875 412.9747619628906 605.1575317382812 412.3886413574219 C 603.5991821289062 411.8023376464844 602.07177734375 411.20556640625 600.5780029296875 410.5993041992188 C 599.0839233398438 409.992919921875 597.6231689453125 409.3769836425781 596.1983032226562 408.7525634765625 C 594.7731323242188 408.1279296875 593.3837890625 407.4947509765625 592.03271484375 406.8540649414062 L 577.0050659179688 475.5306701660156 Z M 521.6965942382812 488.8410949707031 L 521.237060546875 488.8327331542969 L 432.9497375488281 487.2234802246094 L 432.497314453125 487.2152404785156 L 432.4709777832031 486.8074035644531 L 406.5957641601562 86.34737396240234 L 406.5606079101562 85.80351257324219 L 407.0820922851562 85.79452514648438 L 508.9420166015625 84.03801727294922 L 509.472900390625 84.02886962890625 L 509.4894714355469 84.5780029296875 L 521.6842041015625 488.4302978515625 L 521.6965942382812 488.8410949707031 Z M 433.349853515625 486.4158325195312 L 520.7523193359375 488.002685546875 L 508.4447326660156 85.14517211914062 L 407.6734313964844 86.87319183349609 L 433.349853515625 486.4158325195312 Z M 399.9371948242188 486.621826171875 L 399.203369140625 486.6083984375 L 301.1043090820312 484.8203430175781 L 300.8204956054688 484.815185546875 L 300.6752014160156 484.5775146484375 L 209.3516082763672 335.166259765625 L 189.3091430664062 369.2841186523438 L 206.5022583007812 482.6968383789062 L 206.5629425048828 483.0971374511719 L 206.1283569335938 483.0892333984375 L 123.0999984741211 481.5758666992188 L 122.6719284057617 481.5680236816406 L 122.5988540649414 481.1705017089844 L 51.14407348632812 92.45980072021484 L 51.04743576049805 91.93412017822266 L 51.53656768798828 91.92568206787109 L 146.5149841308594 90.287841796875 L 147.0126800537109 90.27926635742188 L 147.0931243896484 90.80984497070312 L 175.2261657714844 276.3868408203125 L 176.0003509521484 276.3865051269531 C 176.8994140625 273.409912109375 177.8157806396484 270.4600219726562 178.749267578125 267.5182800292969 C 179.6849212646484 264.5696105957031 180.6376953125 261.6291198730469 181.6073760986328 258.6777954101562 C 182.5793609619141 255.7195739746094 183.5683288574219 252.7503662109375 184.5741271972656 249.7510986328125 C 185.5823516845703 246.7446899414062 186.6075439453125 243.7078857421875 187.6495666503906 240.6212158203125 C 187.9817962646484 239.6370239257812 188.317138671875 238.6436614990234 188.6544342041016 237.6436614990234 C 188.9920654296875 236.6428680419922 189.3316650390625 235.6353912353516 189.6722259521484 234.6237945556641 C 190.0130310058594 233.6112976074219 190.3547668457031 232.5947418212891 190.6963195800781 231.5764617919922 C 191.0381164550781 230.557373046875 191.3797607421875 229.5366516113281 191.7201385498047 228.5168304443359 L 191.7236022949219 228.5063323974609 L 191.7276458740234 228.4961395263672 L 246.6445007324219 88.84131622314453 L 246.7554931640625 88.55925750732422 L 247.0565490722656 88.55406951904297 L 364.2265625 86.53354644775391 L 365.1815795898438 86.51708221435547 L 364.7260131835938 87.36344146728516 L 264.6892700195312 273.2252807617188 L 399.55859375 486.0244140625 L 399.9371948242188 486.621826171875 Z M 301.2952880859375 484.0184326171875 L 398.4064636230469 485.781494140625 L 263.7381591796875 273.4107971191406 L 263.5841979980469 273.1680603027344 L 263.7070922851562 272.9395751953125 L 363.3574829101562 87.63313293457031 L 247.4841156005859 89.6201171875 L 192.6367340087891 228.9448699951172 C 192.2962036132812 229.9639587402344 191.9544067382812 230.9837951660156 191.6124420166016 232.0020294189453 C 191.2707366943359 233.0193634033203 190.9288940429688 234.0350646972656 190.5879669189453 235.0465545654297 C 190.2473297119141 236.0573272705078 189.9075927734375 237.0638122558594 189.5699157714844 238.0636749267578 C 189.2324829101562 239.0627288818359 188.8970336914062 240.0551147460938 188.5647125244141 241.0383911132812 C 187.5141906738281 244.1463470458984 186.4807586669922 247.2037811279297 185.464599609375 250.2304534912109 C 184.4508514404297 253.2498321533203 183.4542236328125 256.2388000488281 182.4749908447266 259.216796875 C 181.4980316162109 262.187744140625 180.5382995605469 265.1478576660156 179.5960540771484 268.1163635253906 C 178.6560211181641 271.0778503417969 177.7333831787109 274.0476379394531 176.8284912109375 277.0447998046875 L 176.7455596923828 277.3193664550781 L 176.4435272216797 277.3194274902344 L 174.8998565673828 277.3199157714844 L 174.4321594238281 277.320068359375 L 174.3612976074219 276.8536987304688 L 146.1785278320312 91.35732269287109 L 52.21865463256836 92.96855163574219 L 123.3821792602539 480.7883605957031 L 205.5721282958984 482.2804870605469 L 188.3822021484375 369.1380004882812 L 188.3610992431641 368.9991149902344 L 188.42724609375 368.8865051269531 L 208.8975830078125 334.01123046875 L 209.2693634033203 333.3780212402344 L 209.7028656005859 334.0876770019531 L 301.2952880859375 484.0184326171875 Z" stroke="none" fill="#141414"/>
  </g>
</svg>
