<svg id="KISS" xmlns="http://www.w3.org/2000/svg" width="1257.523" height="554.379" viewBox="0 0 1257.523 554.379">
  <path id="KISS-2" data-name="KISS" d="M262.931,271.938,363.064,85.817,245.914,87.831l-54.94,139.636q-2.067,6.189-4.124,12.255t-4.05,12.039q-1.993,5.973-3.915,11.925t-3.719,11.909h-1.544L145.39,89.56,50.428,91.193,121.821,479.92l83.041,1.511L187.63,367.883,208.1,333.014l91.747,150.145,98.114,1.785ZM431.718,485.557l88.3,1.606L507.753,83.329,405.912,85.08Zm413.89-393.18a156.468,156.468,0,0,0-18.734-7.661,202.972,202.972,0,0,0-23.3-6.32,245.708,245.708,0,0,0-27.687-4.15,287.139,287.139,0,0,0-31.843-1.162c-27.213.482-51.442,4.876-72.424,12.407-20.807,7.468-38.358,18-52.459,30.821a126.427,126.427,0,0,0-31.495,43.957,129.506,129.506,0,0,0-10.227,52.1,100.85,100.85,0,0,0,6.83,36.185A110.392,110.392,0,0,0,603.8,280.5a162.631,162.631,0,0,0,31.8,27.851A270.384,270.384,0,0,0,679.431,332.2c10.882,4.683,20.209,9.03,28.06,13.29a106.894,106.894,0,0,1,19.168,12.74,41.09,41.09,0,0,1,10.759,13.639A33.035,33.035,0,0,1,740.27,387.8a34.134,34.134,0,0,1-4.5,15.578,35.638,35.638,0,0,1-11.662,11.93,58.3,58.3,0,0,1-18.794,7.548,110.761,110.761,0,0,1-25.957,2.433,202.856,202.856,0,0,1-24.761-1.9,237.974,237.974,0,0,1-23.909-4.538c-7.689-1.867-15.028-4.046-21.8-6.408a179.882,179.882,0,0,1-18.405-7.51l-15.2,69.544a123.727,123.727,0,0,0,17.524,7.028,240.726,240.726,0,0,0,23.467,6.267c8.605,1.865,17.893,3.459,27.547,4.633a293.026,293.026,0,0,0,29.8,2.119c24.286.451,46.2-2.007,65.52-6.986,19.468-5.017,36.369-12.606,50.446-22.389A111.587,111.587,0,0,0,838.4,381.168a103.846,103.846,0,0,0-2.478-34.868,93.349,93.349,0,0,0-14.888-31.761c-7.212-10.056-16.712-19.489-28.694-28.273-12.032-8.821-26.544-16.972-43.718-24.43-13.145-5.843-24.131-10.95-33.2-15.692-9.089-4.751-16.257-9.138-21.758-13.54s-9.352-8.84-11.773-13.671a33.01,33.01,0,0,1-3.263-16.157,34.928,34.928,0,0,1,4.038-15.426A39.66,39.66,0,0,1,694,174.276a58.25,58.25,0,0,1,18.8-9.147,96.924,96.924,0,0,1,26.367-3.611,183.824,183.824,0,0,1,25.659,1.512,172.818,172.818,0,0,1,21.879,4.292A167.788,167.788,0,0,1,804.7,173.18c5.337,2.079,10.016,4.216,14.033,6.213Zm352.1-5.609a148.932,148.932,0,0,0-18.927-7.9,201.111,201.111,0,0,0-23.921-6.511,253.452,253.452,0,0,0-28.824-4.269,307.96,307.96,0,0,0-33.576-1.183c-28.864.512-55.025,5.057-78.114,12.837-22.891,7.713-42.688,18.581-59.1,31.806a153.46,153.46,0,0,0-38.416,45.3,141.268,141.268,0,0,0-16.855,53.63,94.653,94.653,0,0,0,19.931,70.043q11.808,15.305,30.332,28.611a249.611,249.611,0,0,0,43.484,24.492c10.94,4.809,20.276,9.272,28.065,13.646s14,8.642,18.74,13.079,7.959,9.009,9.756,14a31.678,31.678,0,0,1,1.14,16.344,38.1,38.1,0,0,1-6.578,15.974,43.811,43.811,0,0,1-13.7,12.227,70.041,70.041,0,0,1-20.707,7.73,123.911,123.911,0,0,1-27.66,2.484,214.552,214.552,0,0,1-25.891-1.951,242.192,242.192,0,0,1-24.683-4.659,230.973,230.973,0,0,1-22.241-6.574,171.365,171.365,0,0,1-18.536-7.7l-24.059,71.222a118.04,118.04,0,0,0,17.651,7.2,238.859,238.859,0,0,0,24,6.425c8.851,1.913,18.451,3.549,28.487,4.755a310.442,310.442,0,0,0,31.157,2.184c25.542.475,48.921-2.03,69.875-7.117,21.113-5.126,39.825-12.888,55.822-22.9a140.577,140.577,0,0,0,39.92-36.907,128.058,128.058,0,0,0,21.509-49.169,103.091,103.091,0,0,0,1.512-35.787,83.8,83.8,0,0,0-11.966-32.621c-6.429-10.332-15.351-20.026-26.974-29.054-11.672-9.067-26.046-17.446-43.314-25.114-13.2-6.008-24.211-11.258-33.241-16.135-9.046-4.886-16.107-9.4-21.4-13.925s-8.847-9.093-10.839-14.063c-2-4.985-2.444-10.393-1.556-16.626a38.864,38.864,0,0,1,6.075-15.88,48.709,48.709,0,0,1,13.522-13.464,70.914,70.914,0,0,1,20.958-9.426,109.933,109.933,0,0,1,28.311-3.727,195.619,195.619,0,0,1,26.963,1.55,175.479,175.479,0,0,1,22.637,4.415,163.471,163.471,0,0,1,18.334,6.031c5.4,2.14,10.1,4.341,14.109,6.4Z" fill="#141414"/>
</svg>
